<svg width="73" height="65" viewBox="0 0 73 65" fill="none" xmlns="http://www.w3.org/2000/svg">
<g clip-path="url(#clip0_396_167)">
<path d="M36.5734 20.9478C39.602 20.9478 42.0571 18.5001 42.0571 15.4809C42.0571 12.4616 39.602 10.014 36.5734 10.014C33.5449 10.014 31.0897 12.4616 31.0897 15.4809C31.0897 18.5001 33.5449 20.9478 36.5734 20.9478Z" fill="#AF6682"/>
<path d="M21.1001 27.7188L26.1561 29.1086L28.4544 32.3514L21.1001 30.9616L8.6897 37.4472L9.14934 33.7424L21.1001 27.7188Z" fill="#AF6682"/>
<path d="M46.8401 29.5718L49.1383 27.7188L49.5979 27.7188L50.5172 27.7188L46.8401 29.5718Z" fill="#AF6682"/>
<path d="M63.3873 33.7411L64.7663 35.1308L66.6048 47.6387L64.3066 44.8592L56.4927 35.1308L63.3873 33.7411Z" fill="#AF6682"/>
<path d="M31.6719 42.543L36.2683 43.4696L46.8401 39.3003L53.0456 45.3226L63.8469 57.8304L53.0456 53.1979L43.163 57.8304L36.8509 50.8816L31.6719 42.543Z" fill="#AF6682"/>
<path d="M5.47229 57.8304L6.85122 49.0286L19.8836 43.0063L29.8334 57.8304L19.8836 52.7346L5.47229 57.8304Z" fill="#AF6682"/>
<path d="M0.875732 63.2762C1.15492 61.8653 1.42358 60.4544 1.71857 59.0469C1.78354 58.7388 1.86255 58.3467 2.08204 58.1717C2.35948 57.9669 2.8564 57.8006 3.13559 57.9179C3.44287 58.0474 3.80108 58.5113 3.79932 58.8316C3.79932 59.5896 3.6009 60.3458 3.48326 61.1073C3.44814 61.3331 3.41478 61.5589 3.36386 61.8915C3.65183 61.776 3.85727 61.7025 4.05569 61.6132C8.63159 59.5686 13.2075 57.5263 17.7834 55.4864C18.1135 55.3376 18.3734 55.2203 18.4067 54.7669C18.7105 50.5884 19.0459 46.4099 19.369 42.2314C19.3936 41.9093 19.3988 41.5837 19.4181 41.1478C19.0933 41.3124 18.8492 41.4314 18.6087 41.5574C14.5701 43.6878 10.5315 45.8252 6.47182 47.9346C6.25333 48.0309 6.06378 48.1823 5.92184 48.3738C5.77989 48.5653 5.69046 48.7904 5.66234 49.0269C5.34979 50.886 5.00212 52.738 4.66499 54.5919C4.51573 55.4093 4.07149 55.8172 3.43585 55.728C2.76509 55.6352 2.43322 55.0785 2.58774 54.2295C3.81688 47.4777 5.08816 40.7329 6.23828 33.9689C6.48411 32.5212 7.11624 31.709 8.39454 31.0333C12.5543 28.8241 16.6473 26.5047 20.7597 24.1922C21.4778 23.7861 22.0836 23.7528 22.779 24.18C23.3672 24.5406 24.0081 24.8259 24.7842 25.2303C24.3997 24.4005 24.0818 23.7476 23.7904 23.0789C22.1697 19.2925 21.5586 15.4186 22.714 11.3696C24.3522 5.62965 29.764 1.3251 35.7235 0.890974C39.2859 0.632148 42.8218 1.66854 45.6768 3.80838C48.5318 5.94821 50.5126 9.04661 51.2528 12.5302C52.0078 16.1766 51.3459 19.6531 49.9113 23.0246C49.6303 23.6828 49.309 24.3235 48.9297 25.1375C49.7216 24.7296 50.3801 24.4093 51.0175 24.0539C51.2444 23.9115 51.5071 23.836 51.7752 23.836C52.0433 23.836 52.3059 23.9115 52.5329 24.0539C57.076 26.5887 61.6232 29.1124 66.1745 31.625C66.4152 31.7415 66.623 31.916 66.779 32.1327C66.9351 32.3494 67.0345 32.6015 67.0683 32.8661C67.2439 33.9462 67.4651 35.0175 67.6389 36.0958C67.7636 36.866 67.4458 37.3719 66.826 37.484C66.2061 37.596 65.7461 37.2249 65.5845 36.4529C65.4089 35.6109 65.265 34.7602 65.1069 33.9146C64.991 33.2897 63.9621 32.572 63.3317 32.7103C60.4169 33.351 57.5073 34.0074 54.4415 34.6919L67.9375 50.3241L68.0779 50.2558C67.8584 49.0304 67.6442 47.8051 67.4212 46.5674C67.0841 44.7136 66.7364 42.8616 66.401 41.0078C66.2658 40.2656 66.5766 39.7334 67.1894 39.5969C67.8022 39.4603 68.322 39.8314 68.4712 40.6472C69.2649 44.9488 70.0522 49.251 70.8329 53.5538C71.4194 56.78 72.0217 60.0062 72.566 63.2395C72.6226 63.6821 72.5125 64.1299 72.257 64.4963C71.9199 64.934 71.3931 64.7782 70.9102 64.5611C65.5512 62.1559 60.1833 59.7664 54.8261 57.3524C54.6357 57.2506 54.4235 57.1958 54.2075 57.1928C53.9915 57.1897 53.7778 57.2385 53.5846 57.3349C48.2853 59.7262 42.9842 62.0824 37.6937 64.4753C37.4069 64.6216 37.0895 64.6979 36.7674 64.6979C36.4453 64.6979 36.1279 64.6216 35.8412 64.4753C30.5524 62.0841 25.246 59.7261 19.9555 57.3384C19.7622 57.2414 19.5485 57.1921 19.3321 57.1945C19.1158 57.197 18.9032 57.2511 18.7123 57.3524C13.4211 59.7402 8.12413 62.115 2.82128 64.4771C1.82568 64.9217 1.55703 64.8674 0.875732 64.113V63.2762ZM36.7946 36.1588C36.8494 36.1426 36.9018 36.1197 36.9509 36.0905C41.3547 32.2394 45.2634 27.9839 47.7585 22.6115C49.1176 19.6934 49.7778 16.6422 49.2704 13.3932C48.0992 5.88697 39.9307 1.03452 32.756 3.60954C26.1819 5.971 22.8053 12.6878 24.7561 19.4535C25.7851 23.0246 27.6288 26.1476 29.9202 29.0342C31.9686 31.6308 34.2715 34.0175 36.7946 36.1588ZM43.0018 59.7629C43.2669 59.6526 43.504 59.5598 43.7357 59.4566C46.5873 58.1804 49.4284 56.8815 52.2958 55.6387C52.8788 55.3866 53.093 55.1135 53.0368 54.4658C52.6856 50.4291 52.3889 46.3889 52.05 42.3522C52.008 42.0899 51.8712 41.8521 51.6654 41.6835C50.1343 40.4581 48.5891 39.2555 47.021 38.0809C46.896 38.0005 46.7548 37.9483 46.6074 37.9281C46.46 37.9078 46.3099 37.9199 46.1677 37.9636C43.5461 39.0647 40.9438 40.2148 38.3258 41.3281C37.9412 41.4927 37.8183 41.7062 37.8201 42.1124C37.8324 46.0493 37.8201 49.9897 37.8359 53.9214C37.8238 54.1714 37.8968 54.4182 38.0431 54.6216C39.6813 56.3459 41.3407 58.0474 43.0018 59.7629ZM22.0661 34.5833C21.9554 36.0258 21.8378 37.3842 21.7623 38.7548C21.778 39.004 21.8665 39.2432 22.0169 39.4428C26.4359 46.1567 30.8608 52.867 35.2916 59.5739C35.4242 59.7487 35.5661 59.9164 35.7165 60.0763C35.7165 58.569 35.7516 57.2439 35.6972 55.9205C35.6823 55.4199 35.5429 54.9309 35.2916 54.4973C32.3651 49.8479 29.4169 45.2096 26.4471 40.5824C26.1573 40.1273 25.9449 39.6739 26.2838 39.1592C26.6226 38.6446 27.1213 38.6428 27.6569 38.7128C28.9527 38.8797 30.2492 39.0408 31.5462 39.196C32.907 39.3588 34.2661 39.5093 35.6691 39.6704C35.778 38.7111 35.8447 37.9058 34.9263 37.2809C34.1853 36.775 33.5901 36.1483 32.5875 36.0468C30.4523 35.8315 28.3329 35.4761 26.2065 35.1715C24.8439 34.9825 23.4883 34.7864 22.0661 34.5833ZM33.6638 61.1913L33.7622 61.0881L21.5323 42.5535C21.486 42.6736 21.449 42.7971 21.4216 42.9229C21.1108 46.9105 20.7948 50.8982 20.5156 54.8894C20.5033 55.0855 20.779 55.3988 20.995 55.4969C22.9387 56.3967 24.9001 57.2579 26.8562 58.1332L33.6638 61.1913ZM7.43581 39.3745C11.6676 37.1479 15.75 34.9982 19.829 32.8468C19.895 32.8082 19.9524 32.7563 19.9974 32.6946C20.0424 32.6328 20.0741 32.5625 20.0907 32.488C20.2557 30.6167 20.3997 28.7436 20.556 26.8023C20.4405 26.8317 20.3273 26.8691 20.2171 26.9143C16.4243 29.0149 12.6339 31.1196 8.84581 33.2284C8.6681 33.3257 8.53478 33.4874 8.47356 33.6801C8.12062 35.5251 7.79402 37.3754 7.43581 39.3745ZM54.431 44.7206C54.431 45.1233 54.4169 45.3298 54.431 45.5311C54.6663 48.6191 54.8928 51.7087 55.165 54.7932C55.186 55.0312 55.4828 55.3376 55.7269 55.4479C59.5249 57.1774 63.3352 58.8789 67.1403 60.5839C67.3001 60.6557 67.4721 60.6959 67.7935 60.801L54.431 44.7206ZM53.9604 37.3684L53.8147 37.4122C53.8937 38.5203 53.9604 39.6301 54.0658 40.7382C54.1088 40.9641 54.2146 41.1734 54.3713 41.3421C59.3862 47.3826 64.4051 53.4202 69.4282 59.4548C69.5536 59.5829 69.6861 59.7039 69.8251 59.8172C69.5424 58.2907 69.3246 56.8903 69.0103 55.5109C68.8882 54.9561 68.6408 54.4365 68.2869 53.9914C66.4168 51.7595 64.4959 49.5696 62.5907 47.3657L53.9604 37.3684ZM51.82 39.119C51.5864 36.1431 51.3687 33.3562 51.1457 30.4889C50.8226 30.6202 50.6101 30.7007 50.4029 30.7917C48.482 31.632 46.5891 32.5422 44.6383 33.2967C42.6506 34.0687 40.8613 35.0717 39.4496 36.698C39.1412 37.0479 38.7868 37.3547 38.396 37.61C37.785 38.0144 37.7305 38.5378 37.9114 39.2012C38.1572 39.1049 38.375 39.0262 38.5857 38.9334C40.9983 37.8831 43.4214 36.8625 45.8183 35.7825C46.5926 35.4324 47.1879 35.4621 47.8569 36.0205C49.0895 37.0481 50.3801 38.0004 51.8235 39.1225L51.82 39.119ZM19.8799 35.3238C19.7971 35.3196 19.714 35.3249 19.6324 35.3396C15.5095 37.5032 11.3872 39.6704 7.26549 41.841C7.10314 41.9196 6.97739 42.0576 6.91431 42.2261C6.69482 43.3132 6.50869 44.4073 6.30149 45.5626C6.41403 45.543 6.52452 45.5131 6.63161 45.4734C10.8563 43.256 15.0781 41.0294 19.297 38.7934C19.3821 38.7458 19.4564 38.6811 19.515 38.6033C19.5737 38.5256 19.6154 38.4365 19.6376 38.3417C19.7465 37.3544 19.8062 36.3601 19.8835 35.3273L19.8799 35.3238ZM31.0862 33.7396C30.0432 32.4792 29.0458 31.3711 28.1661 30.179C27.4444 29.2005 26.6068 28.4285 25.4813 27.9454C24.5577 27.541 23.6797 27.0316 22.6824 26.5169C22.5261 28.5825 22.3804 30.5134 22.2311 32.4687L31.0862 33.7396ZM35.5848 51.0208C35.6313 50.9388 35.6684 50.8519 35.6954 50.7617C35.6954 47.9206 35.6954 45.0795 35.713 42.2384C35.713 41.8778 35.5655 41.7693 35.2196 41.7342C34.1274 41.624 33.0405 41.4717 31.9518 41.3421C31.0914 41.2406 30.231 41.1513 29.2302 41.041L35.5848 51.0208ZM53.4494 32.7593L60.8822 31.105C59.4915 30.3366 58.2483 29.6504 57.0192 28.9712C56.9405 28.921 56.8469 28.8994 56.7541 28.9099C55.5794 29.176 54.4082 29.4526 53.2159 29.7309C53.2932 30.7619 53.3669 31.7072 53.4494 32.7593ZM50.7752 26.6185C47.9341 27.6355 46.1677 28.9396 45.23 30.7619L49.7603 28.7751C51.1053 28.1887 51.1053 28.1887 50.8384 26.7287C50.8216 26.6897 50.8004 26.6527 50.7752 26.6185ZM40.9596 60.6942L37.8921 57.9319V62.0648L40.9596 60.6942Z" fill="black"/>
<path d="M40.9597 60.6936L37.8921 62.0642V57.9312L40.9597 60.6936Z" fill="white"/>
<path d="M43.346 15.4353C43.363 17.1468 42.7024 18.796 41.5074 20.0249C40.3125 21.2539 38.6797 21.9635 36.9632 21.9998C35.3588 22.0416 33.7967 21.4835 32.584 20.4353C31.3714 19.387 30.596 17.9244 30.4102 16.3351C30.1679 14.3623 30.7368 12.659 32.0239 11.1816C32.4927 10.6389 33.088 10.5321 33.5603 10.8875C34.0695 11.2708 34.138 11.9028 33.6481 12.4822C32.5945 13.7268 32.1714 15.108 32.6086 16.6975C33.1599 18.7018 35.181 20.1092 37.1459 19.8922C39.4759 19.6331 41.1072 17.9508 41.2336 15.6734C41.3477 13.6113 39.8166 11.677 37.7218 11.2428C37.4022 11.1781 37.0721 11.1728 36.7508 11.1168C36.1485 11.01 35.7604 10.5479 35.8026 10.0087C35.8447 9.46954 36.2907 9.06342 36.8965 9.04242C39.857 8.93563 42.8947 11.5422 43.2389 14.4848C43.274 14.8367 43.3161 15.1833 43.346 15.4353Z" fill="black"/>
</g>
<defs>
<clipPath id="clip0_396_167">
<rect width="71.7044" height="63.9292" fill="white" transform="translate(0.875732 0.850037)"/>
</clipPath>
</defs>
</svg>
