<svg width="71" height="71" viewBox="0 0 71 71" fill="none" xmlns="http://www.w3.org/2000/svg">
<g clip-path="url(#clip0_396_126)">
<path d="M62.9219 34.0507C62.9007 48.9816 53.5841 60.1731 40.9021 62.5755C35.8026 63.5767 30.5257 63.1519 25.652 61.3478C24.3379 60.8645 23.5548 59.7216 23.6289 58.4569C23.6693 57.8207 23.9145 57.2146 24.3277 56.7291C24.741 56.2437 25.3002 55.905 25.9218 55.7635C26.7403 55.5677 27.4793 55.8341 28.2307 56.1163C35.8011 58.9208 42.9923 58.1041 49.5731 53.4705C61.001 45.4292 62.3151 28.9144 52.4323 19.0069C52.2242 18.8005 52.0072 18.603 51.8062 18.3878C51.1553 17.6823 51.1006 16.8797 51.6598 16.2588C52.2189 15.638 53.1326 15.5868 53.8663 16.2148C55.6994 17.7822 57.2952 19.6074 58.604 21.6333C61.4455 26.0287 62.9166 30.844 62.9219 34.0507Z" fill="#222222"/>
<path d="M9.00129 34.9239C8.95896 24.0339 16.0073 13.7578 26.1723 9.87738C27.7121 9.29003 29.3101 9.9109 29.8499 11.3061C30.4407 12.8353 29.6946 14.3046 28.0208 14.9202C20.1576 17.8094 15.1236 23.3178 13.2945 31.472C11.6788 38.6808 13.4479 45.2212 18.0745 50.9818C18.295 51.2552 18.5366 51.511 18.75 51.7932C19.2792 52.4899 19.2474 53.1567 18.6706 53.6699C18.3989 53.8996 18.0494 54.0165 17.6941 53.9965C17.3388 53.9765 17.0047 53.8211 16.7604 53.5623C15.2769 52.0999 13.9779 50.4615 12.8923 48.6836C10.3502 44.544 9.00348 39.7817 9.00129 34.9239Z" fill="#222222"/>
<path d="M23.5389 27.8491C25.1969 27.8491 26.7262 27.8721 28.2519 27.8368C28.7652 27.8244 29.0192 28.0008 29.2538 28.4488C31.1252 32.0083 33.1995 35.4495 35.3849 38.822C35.9317 39.6633 35.9317 39.6633 36.4573 38.852C38.648 35.4813 40.7223 32.0418 42.5884 28.4806C42.8442 27.9938 43.1281 27.8227 43.6714 27.835C45.1865 27.8738 46.7034 27.8491 48.3756 27.8491C47.7353 29.0838 47.1779 30.2003 46.5817 31.2974C43.517 36.8795 40.1153 42.2697 36.3956 47.4383C36.1892 47.7294 36.0428 48.2744 35.5683 47.5953C31.194 41.4078 27.1019 35.0456 23.7153 28.2601C23.6659 28.1613 23.6271 28.0573 23.5389 27.8491Z" fill="#222222"/>
<path d="M0.975907 34.2853C1.15229 24.2085 4.93925 15.7121 12.2362 8.76961C13.411 7.65134 15.076 7.71131 16.0849 8.8384C17.0939 9.9655 16.9228 11.6341 15.6704 12.6536C9.54287 17.6417 5.76649 24.0127 4.43303 31.8018C4.01676 34.2359 3.84214 36.6965 4.11377 39.1676C4.14739 39.4604 4.16505 39.7548 4.16669 40.0495C4.16669 40.9032 3.73455 41.4606 2.99197 41.547C2.28644 41.6352 1.6691 41.1537 1.52446 40.337C1.14746 38.3421 0.96376 36.3155 0.975907 34.2853Z" fill="#222222"/>
<path d="M51.1853 63.5368C51.1764 62.101 51.8696 61.2755 52.9279 60.6459C59.7682 56.5784 64.7683 50.0208 66.8799 42.3478C67.0827 41.6141 67.4478 41.0567 68.2345 40.8926C69.5503 40.6175 70.5116 41.6511 70.2559 43.0921C69.8756 45.2925 69.2758 47.4493 68.4656 49.5302C65.8851 56.0969 61.6977 61.4202 56.0076 65.5811C54.9969 66.3184 53.928 66.5159 52.7868 65.9462C51.7515 65.4135 51.2294 64.5457 51.1853 63.5368Z" fill="#222222"/>
<path d="M34.2489 70.5199C29.7177 70.5127 25.2288 69.6466 21.0201 67.9677C19.4874 67.3644 18.8189 65.9639 19.3921 64.5881C19.9654 63.2124 21.544 62.6232 23.0203 63.3746C28.0657 65.9572 33.7093 67.1452 39.3676 66.8159C41.4506 66.6935 43.5174 66.3758 45.541 65.8669C46.5623 65.6165 47.2625 65.904 47.5006 66.6624C47.7388 67.4209 47.3243 68.0612 46.3365 68.4174C42.4634 69.8277 38.3708 70.5396 34.2489 70.5199Z" fill="#222222"/>
<path d="M34.2914 4.18024C32.7346 4.15375 31.1785 4.26115 29.6401 4.50126C28.7265 4.6459 28.0386 4.22963 27.8763 3.45707C27.7229 2.73566 28.1638 2.12714 29.0722 1.8996C33.1531 0.875455 37.3856 0.597591 41.5655 1.07942C46.0097 1.57586 50.3193 2.91182 54.2651 5.0163C55.3798 5.60895 55.9443 6.62669 55.7573 7.66206C55.6711 8.20351 55.4145 8.70333 55.0246 9.08878C54.6347 9.47423 54.1319 9.72519 53.5895 9.80512C52.8117 9.93212 52.1644 9.62874 51.5294 9.21247C46.4052 5.87223 40.4078 4.12145 34.2914 4.18024Z" fill="#222222"/>
<path d="M17.7482 61.2633C17.7327 62.0375 17.4104 62.7738 16.852 63.3104C16.2937 63.8469 15.545 64.1396 14.7708 64.1242C13.9966 64.1088 13.2603 63.7864 12.7237 63.228C12.1872 62.6697 11.8944 61.921 11.9099 61.1468C11.9399 59.54 13.2363 58.3159 14.8837 58.3388C15.2644 58.3409 15.6408 58.4184 15.9914 58.5668C16.3419 58.7152 16.6595 58.9317 16.9259 59.2036C17.1922 59.4756 17.4021 59.7976 17.5432 60.1511C17.6844 60.5046 17.754 60.8826 17.7482 61.2633Z" fill="#222222"/>
<path d="M38.2405 10.8105C38.2444 11.1921 38.173 11.5707 38.0302 11.9247C37.8875 12.2786 37.6762 12.6008 37.4086 12.8729C37.1409 13.1449 36.8222 13.3614 36.4707 13.51C36.1192 13.6585 35.7418 13.7362 35.3601 13.7385C33.7815 13.7614 32.3616 12.3415 32.3863 10.7664C32.4076 9.99757 32.7308 9.26805 33.2861 8.73586C33.8414 8.20368 34.584 7.91168 35.3531 7.92311C35.7341 7.91642 36.1126 7.98653 36.4659 8.12927C36.8193 8.272 37.1402 8.48444 37.4097 8.7539C37.6792 9.02337 37.8916 9.34434 38.0343 9.69768C38.1771 10.051 38.2472 10.4295 38.2405 10.8105Z" fill="#222222"/>
<path d="M20.9179 8.96189C20.1464 8.95783 19.4071 8.65159 18.8588 8.10884C18.3104 7.56609 17.9966 6.83006 17.9846 6.05862C18.0047 5.29103 18.3242 4.56173 18.8747 4.02644C19.4252 3.49115 20.1631 3.19229 20.931 3.19367C21.6988 3.19505 22.4357 3.49657 22.9843 4.03384C23.5329 4.5711 23.8497 5.30155 23.867 6.0692C23.8482 6.84023 23.5297 7.57359 22.9791 8.11366C22.4285 8.65373 21.6891 8.95799 20.9179 8.96189Z" fill="#222222"/>
<path d="M59.6376 15.1936C59.2565 15.1992 58.878 15.1288 58.5245 14.9864C58.1709 14.844 57.8493 14.6325 57.5784 14.3642C57.3076 14.096 57.0929 13.7765 56.9471 13.4243C56.8013 13.0721 56.7271 12.6944 56.729 12.3132C56.729 10.7064 58.0255 9.45934 59.6729 9.4664C61.3203 9.47345 62.5673 10.7011 62.562 12.3485C62.5568 13.9959 61.2991 15.2024 59.6376 15.1936Z" fill="#222222"/>
<path d="M69.2893 33.1565C69.6436 33.1513 69.9855 33.287 70.2398 33.5337C70.4941 33.7805 70.6401 34.118 70.6457 34.4723C70.6373 34.8129 70.498 35.137 70.2569 35.3776C70.0157 35.6181 69.6911 35.7565 69.3506 35.764C69.0101 35.7714 68.6798 35.6475 68.4282 35.4178C68.1767 35.1881 68.0233 34.8704 68 34.5305C67.9938 34.3555 68.0224 34.181 68.084 34.0171C68.1456 33.8531 68.239 33.703 68.3588 33.5753C68.4786 33.4476 68.6225 33.3448 68.7822 33.273C68.9419 33.2011 69.1143 33.1615 69.2893 33.1565Z" fill="#222222"/>
<path d="M45.9008 11.5689C46.0764 11.5578 46.2525 11.5829 46.418 11.6426C46.5835 11.7024 46.735 11.7955 46.863 11.9163C46.991 12.037 47.0928 12.1828 47.1622 12.3445C47.2315 12.5063 47.2669 12.6805 47.266 12.8565C47.2701 13.0325 47.2386 13.2076 47.1736 13.3712C47.1086 13.5349 47.0113 13.6837 46.8875 13.809C46.7637 13.9342 46.616 14.0333 46.4532 14.1002C46.2903 14.1672 46.1157 14.2007 45.9396 14.1988C45.5997 14.1924 45.2743 14.0597 45.0268 13.8266C44.7794 13.5935 44.6275 13.2766 44.6009 12.9376C44.594 12.7618 44.6224 12.5864 44.6845 12.4218C44.7465 12.2572 44.8409 12.1066 44.9621 11.979C45.0832 11.8515 45.2287 11.7494 45.3899 11.679C45.5512 11.6086 45.7249 11.5711 45.9008 11.5689Z" fill="#222222"/>
</g>
<defs>
<clipPath id="clip0_396_126">
<rect width="69.6663" height="69.6663" fill="white" transform="translate(0.977661 0.850037)"/>
</clipPath>
</defs>
</svg>
