<svg width="17" height="16" viewBox="0 0 17 16" fill="none" xmlns="http://www.w3.org/2000/svg">
<path fill-rule="evenodd" clip-rule="evenodd" d="M8.00294 16C12.4228 16 16.0059 12.4183 16.0059 8C16.0059 3.58172 12.4228 0 8.00294 0C3.58304 0 0 3.58172 0 8C0 12.4183 3.58304 16 8.00294 16ZM8.22341 2.93663C6.78745 2.93663 6.60771 2.9424 6.04399 2.96835C5.48172 2.9943 5.09678 3.08369 4.76037 3.21392C4.40786 3.34678 4.08855 3.55489 3.82469 3.82378C3.55563 4.08776 3.34735 4.40724 3.21436 4.75994C3.08412 5.09634 2.99425 5.4808 2.96878 6.04404C2.94331 6.60728 2.93707 6.78701 2.93707 8.22298C2.93707 9.65846 2.94283 9.83819 2.96878 10.4029C2.99474 10.9651 3.08412 11.3496 3.21436 11.686C3.34715 12.0387 3.55527 12.3582 3.82421 12.6222C4.08844 12.8909 4.40807 13.0989 4.76085 13.2315C5.09726 13.3623 5.48172 13.4521 6.04399 13.4776C6.60771 13.5031 6.78745 13.5093 8.22341 13.5093C9.65937 13.5093 9.83911 13.5036 10.4033 13.4776C10.9656 13.4517 11.35 13.3623 11.6864 13.2315C12.0387 13.0989 12.3583 12.8913 12.6226 12.6222C12.8914 12.358 13.0993 12.0383 13.232 11.6855C13.3627 11.3491 13.4526 10.9647 13.478 10.4024C13.5035 9.83867 13.5098 9.65894 13.5098 8.22298C13.5098 6.78749 13.504 6.60776 13.478 6.04308C13.4521 5.4808 13.3627 5.09634 13.232 4.75994C13.0993 4.4072 12.8917 4.08809 12.6226 3.82426C12.3583 3.55513 12.0387 3.34704 11.6864 3.21392C11.35 3.08369 10.9656 2.99382 10.4023 2.96835C9.83911 2.94288 9.65937 2.93663 8.22341 2.93663ZM8.22341 3.88913C9.63486 3.88913 9.8021 3.89442 10.3596 3.91989C10.8752 3.94344 11.1549 4.02946 11.3414 4.10203C11.571 4.18671 11.7787 4.32169 11.9493 4.49706C12.1343 4.68209 12.2482 4.85846 12.3444 5.10499C12.4169 5.29146 12.5029 5.57115 12.5265 6.08681C12.552 6.64428 12.5572 6.81152 12.5572 8.22298C12.5572 9.63443 12.552 9.80167 12.5265 10.3591C12.5029 10.8748 12.4169 11.1545 12.3444 11.341C12.2598 11.5702 12.1247 11.7783 11.9493 11.9489C11.7643 12.1339 11.5879 12.2478 11.3414 12.3439C11.1549 12.4165 10.8752 12.5025 10.3596 12.5261C9.8021 12.5515 9.63534 12.5568 8.22341 12.5568C6.81148 12.5568 6.64471 12.5515 6.08725 12.5261C5.57159 12.5025 5.29189 12.4165 5.10543 12.3439C4.87619 12.2593 4.6681 12.1243 4.4975 11.9489C4.32209 11.7783 4.18705 11.5702 4.10246 11.341C4.0299 11.1545 3.94387 10.8748 3.92033 10.3591C3.89486 9.80167 3.88957 9.63443 3.88957 8.22298C3.88957 6.81152 3.89486 6.64428 3.92033 6.08681C3.94387 5.57115 4.0299 5.29146 4.10246 5.10499C4.18713 4.87541 4.32211 4.66769 4.4975 4.49706C4.68252 4.31204 4.85889 4.19815 5.10543 4.10203C5.29189 4.02946 5.57159 3.94344 6.08725 3.91989C6.64471 3.89442 6.81196 3.88913 8.22341 3.88913ZM8.73615 9.91255C8.34518 10.0308 7.92529 10.0096 7.5482 9.85261C7.30735 9.75274 7.09163 9.60071 6.91659 9.40746C6.74154 9.21422 6.61152 8.98456 6.53588 8.73504C6.46025 8.48551 6.44087 8.22232 6.47916 7.96441C6.51745 7.70649 6.61245 7.46028 6.75732 7.24349C6.90218 7.0267 7.09331 6.84472 7.31695 6.71066C7.54058 6.57661 7.79116 6.4938 8.05064 6.4682C8.31012 6.44261 8.57205 6.47487 8.81756 6.56265C9.06308 6.65044 9.28608 6.79157 9.47051 6.97588C9.75982 7.26421 9.94005 7.64404 9.98042 8.0505C10.0208 8.45695 9.9188 8.86482 9.69186 9.20443C9.46493 9.54404 9.12712 9.79433 8.73615 9.91255ZM7.18359 5.71262C6.85392 5.84917 6.55438 6.04932 6.30206 6.30163C5.79249 6.8112 5.50622 7.50233 5.50622 8.22298C5.50622 8.94362 5.79249 9.63475 6.30206 10.1443C6.81164 10.6539 7.50277 10.9402 8.22341 10.9402C8.94405 10.9402 9.63518 10.6539 10.1448 10.1443C10.3971 9.89201 10.5972 9.59246 10.7338 9.2628C10.8703 8.93314 10.9406 8.5798 10.9406 8.22298C10.9406 7.86615 10.8703 7.51282 10.7338 7.18315C10.5972 6.85349 10.3971 6.55394 10.1448 6.30163C9.89244 6.04932 9.5929 5.84917 9.26323 5.71262C8.93357 5.57606 8.58024 5.50578 8.22341 5.50578C7.86658 5.50578 7.51325 5.57607 7.18359 5.71262ZM11.6904 5.70186C11.6558 5.78053 11.6058 5.85146 11.5432 5.91044C11.4216 6.02515 11.2601 6.08795 11.093 6.08551C10.9258 6.08308 10.7662 6.01559 10.648 5.89739C10.5298 5.77918 10.4623 5.61957 10.4599 5.45242C10.4574 5.28527 10.5202 5.12375 10.6349 5.00215C10.6939 4.93963 10.7649 4.88957 10.8435 4.85495C10.9222 4.82033 11.007 4.80184 11.093 4.80059C11.1789 4.79934 11.2642 4.81534 11.3439 4.84765C11.4235 4.87997 11.4959 4.92793 11.5567 4.98871C11.6174 5.04949 11.6654 5.12185 11.6977 5.2015C11.73 5.28115 11.746 5.36647 11.7448 5.45242C11.7435 5.53836 11.7251 5.62318 11.6904 5.70186Z" fill="white"/>
</svg>
