<svg width="65" height="65" viewBox="0 0 65 65" fill="none" xmlns="http://www.w3.org/2000/svg">
<g clip-path="url(#clip0_695_98)">
<path d="M47.013 46.3385L46.6794 58.528H6.47314V13.6386H57.6368V46.3385H47.013Z" fill="#8FAFB0"/>
<path d="M0.300354 58.5288V13.491C0.33372 13.3127 0.382101 13.1343 0.400452 12.9526C0.667382 10.4074 2.48417 8.41887 5.00999 7.98883C5.72891 7.89535 6.45412 7.85913 7.17879 7.88049C8.67193 7.86548 10.1651 7.88049 11.755 7.88049C11.755 7.0304 11.7116 6.242 11.7633 5.46025C11.8657 4.0521 12.4976 2.73481 13.532 1.77294C14.5664 0.811063 15.9268 0.275852 17.3399 0.274796C18.753 0.273741 20.1142 0.806919 21.1501 1.76725C22.186 2.72757 22.8198 4.04392 22.9243 5.45192C22.976 6.23366 22.9243 7.02374 22.9243 7.84048H26.743C26.743 6.9904 26.6963 6.17365 26.7514 5.37357C26.9449 2.62331 29.3072 0.373089 32.0666 0.27808C35.3081 0.159735 37.8189 2.5633 37.9407 5.91196C37.9641 6.54869 37.9407 7.18542 37.9407 7.85048H41.7428C41.7428 6.95706 41.6811 6.08531 41.7528 5.22523C42.0081 2.18827 45.0727 -0.168631 48.074 0.324751C51.0069 0.808131 52.8738 3.00835 52.9322 6.06031C52.9438 6.6537 52.9322 7.24709 52.9322 7.88382C54.9008 7.88382 56.7693 7.84048 58.6411 7.89549C61.0018 7.96549 62.7451 9.11061 63.6711 11.2675C64.0347 12.1126 64.1515 13.121 64.1549 14.0578C64.1866 24.4104 64.1749 34.7648 64.1749 45.1174C64.1749 49.4834 64.1749 53.8494 64.1749 58.2154C64.1749 60.639 63.1639 62.4625 60.9934 63.5809C60.4929 63.8426 59.909 63.9676 59.3635 64.1543H5.17181C4.97996 64.0926 4.78811 64.0243 4.59458 63.9676C2.39241 63.3376 1.02941 61.9007 0.487205 59.6855C0.395448 59.3005 0.362081 58.9121 0.300354 58.5288ZM4.13746 26.609C4.12745 26.844 4.11077 27.029 4.11077 27.2124C4.11077 37.5467 4.11077 47.881 4.11077 58.2154C4.11077 59.6789 4.83815 60.3989 6.29459 60.3989C19.1194 60.3989 31.9432 60.3989 44.7658 60.3989C44.9643 60.3989 45.1628 60.3806 45.3914 60.3689V47.5343C45.3914 46.0242 46.1004 45.3091 47.5952 45.3091H60.3928V26.609H4.13746ZM4.1091 22.7919H60.4445V22.0585C60.4445 19.1683 60.4612 16.278 60.4195 13.391C60.4045 12.3443 59.5937 11.6375 58.5343 11.6225C57.4099 11.6059 56.2854 11.6225 55.161 11.6225H52.9021C52.9021 12.5109 52.9555 13.3244 52.8921 14.1228C52.6702 16.8747 50.0994 19.1583 47.3467 19.0982C46.895 19.098 46.4587 18.9345 46.1183 18.638C45.7779 18.3414 45.5565 17.9318 45.4948 17.4848C45.343 16.358 46.1204 15.4579 47.33 15.3579C48.2309 15.2845 48.9616 14.8178 49.0984 14.0411C49.2352 13.2643 49.1968 12.4543 49.2352 11.6542H37.9124C37.9124 12.5009 37.9674 13.3127 37.9024 14.1161C37.6821 16.8714 35.1163 19.1566 32.3536 19.0982C31.966 19.097 31.588 18.9769 31.2709 18.7543C30.9538 18.5316 30.7127 18.2171 30.5802 17.8531C30.1614 16.6747 30.9722 15.4746 32.2668 15.3529C33.2678 15.2645 33.9985 14.7962 34.1153 13.9794C34.2237 13.2177 34.1387 12.4276 34.1387 11.6459H22.9243C22.9243 12.4909 22.9777 13.3027 22.9143 14.1061C22.6941 16.863 20.1332 19.1466 17.3688 19.0916C17.0442 19.0962 16.7241 19.0148 16.4413 18.8555C16.1584 18.6962 15.923 18.4647 15.7589 18.1848C15.0198 16.9747 15.819 15.4846 17.2721 15.3512C18.273 15.2629 19.0071 14.7978 19.1239 13.9811C19.234 13.2193 19.1472 12.4293 19.1472 11.6575C19.1041 11.638 19.0587 11.624 19.0121 11.6158C14.6612 11.6158 10.3102 11.6008 5.95926 11.6158C4.94326 11.6158 4.19585 12.3593 4.12412 13.381C4.08408 14.0011 4.10743 14.6278 4.10577 15.2512L4.1091 22.7919ZM51.7393 60.4006C54.0216 60.4006 56.1386 60.4006 58.2557 60.4006C59.7122 60.4006 60.4379 59.6822 60.4429 58.222C60.4496 56.2219 60.4496 54.2272 60.4429 52.2381C60.4429 52.0715 60.4095 51.9048 60.3811 51.6264L51.7393 60.4006ZM49.1801 49.0662V57.662L57.6368 49.0678L49.1801 49.0662ZM19.1773 7.83715C19.1773 7.04374 19.239 6.27533 19.1606 5.52026C19.0688 4.65017 18.2463 4.02011 17.3688 4.00511C16.5196 3.99678 15.6638 4.59516 15.562 5.42525C15.4636 6.21199 15.5404 7.0204 15.5404 7.83715H19.1773ZM34.2121 7.83715C34.2121 7.22709 34.2121 6.67037 34.2121 6.10865C34.2134 5.94142 34.2028 5.77432 34.1804 5.6086C34.1186 5.16222 33.8969 4.75337 33.5563 4.45789C33.2158 4.16241 32.7796 4.00035 32.3285 4.00178C31.426 4.00178 30.6068 4.66851 30.5201 5.5736C30.45 6.31033 30.5067 7.05707 30.5067 7.83382L34.2121 7.83715ZM49.1634 7.84882C49.1634 7.05541 49.2185 6.307 49.1484 5.57026C49.0633 4.69018 48.2776 4.03845 47.3967 4.00678C46.5525 3.97511 45.6667 4.55016 45.5532 5.37691C45.4398 6.20366 45.5299 7.00873 45.5299 7.84882H49.1634Z" fill="black"/>
<path d="M0.300354 58.528C0.362081 58.9113 0.395448 59.2997 0.487205 59.6747C1.02941 61.89 2.39241 63.3268 4.59458 63.9568C4.7881 64.0135 4.97996 64.0818 5.17181 64.1435H0.300354V58.528Z" fill="white"/>
<path d="M15.4036 30.3253C16.0259 30.3253 16.6499 30.3119 17.2721 30.3253C17.7677 30.3266 18.2424 30.5245 18.5919 30.8756C18.9414 31.2266 19.137 31.702 19.1356 32.1971C19.1343 32.6922 18.9362 33.1665 18.5848 33.5157C18.2335 33.8649 17.7577 34.0603 17.2621 34.059C16.0376 34.079 14.813 34.0773 13.5918 34.059C12.4908 34.044 11.67 33.2255 11.6733 32.1854C11.6766 31.1453 12.4958 30.3536 13.5968 30.3253C14.1991 30.3253 14.8014 30.3253 15.4036 30.3253Z" fill="black"/>
<path d="M26.6596 34.0723C26.0373 34.0723 25.4134 34.0856 24.7911 34.0723C24.541 34.0776 24.2924 34.0327 24.06 33.9404C23.8276 33.848 23.6161 33.71 23.438 33.5344C23.2599 33.3589 23.1188 33.1495 23.0232 32.9186C22.9276 32.6877 22.8793 32.4399 22.8812 32.19C22.8831 31.9401 22.9351 31.6931 23.0342 31.4636C23.1334 31.2342 23.2776 31.0269 23.4583 30.8542C23.639 30.6814 23.8526 30.5466 24.0864 30.4577C24.3202 30.3689 24.5695 30.3278 24.8195 30.3369C26.0429 30.3202 27.2663 30.3202 28.4898 30.3369C29.5892 30.3519 30.4083 31.1703 30.4 32.2188C30.3916 33.2672 29.5658 34.0523 28.4631 34.0739C27.8625 34.0823 27.2602 34.0723 26.6596 34.0723Z" fill="black"/>
<path d="M37.8991 30.3253C38.5214 30.3253 39.1437 30.3119 39.7659 30.3253C40.2521 30.3351 40.7154 30.5338 41.0572 30.8794C41.399 31.225 41.5926 31.6901 41.5967 32.1759C41.6008 32.6617 41.4152 33.13 41.0793 33.4813C40.7434 33.8326 40.2836 34.0393 39.7976 34.0573C38.532 34.0817 37.2657 34.0817 35.9989 34.0573C35.5129 34.0393 35.0532 33.8326 34.7172 33.4813C34.3813 33.13 34.1957 32.6617 34.1998 32.1759C34.204 31.6901 34.3975 31.225 34.7393 30.8794C35.0812 30.5338 35.5444 30.3351 36.0306 30.3253C36.6529 30.3253 37.2752 30.3253 37.8991 30.3253Z" fill="black"/>
<path d="M49.1385 30.3253C49.7407 30.3253 50.343 30.3253 50.9436 30.3253C52.0547 30.3453 52.8755 31.1337 52.8855 32.1771C52.888 32.4269 52.8403 32.6747 52.7452 32.9057C52.6501 33.1368 52.5096 33.3464 52.3319 33.5222C52.1543 33.698 51.9431 33.8364 51.7109 33.9292C51.4787 34.0219 51.2303 34.0672 50.9803 34.0623C49.7569 34.0789 48.5334 34.0789 47.31 34.0623C47.0601 34.0669 46.8118 34.0217 46.5797 33.9291C46.3476 33.8365 46.1363 33.6985 45.9584 33.5232C45.7804 33.3478 45.6393 33.1387 45.5434 32.9081C45.4475 32.6776 45.3986 32.4301 45.3998 32.1804C45.4081 31.142 46.234 30.3469 47.3367 30.3253C47.934 30.3253 48.5362 30.3253 49.1385 30.3253Z" fill="black"/>
<path d="M15.4053 37.816C16.0276 37.816 16.6499 37.8043 17.2721 37.816C17.5223 37.8093 17.7713 37.8529 18.0043 37.9442C18.2373 38.0354 18.4496 38.1725 18.6287 38.3472C18.8077 38.5219 18.9498 38.7308 19.0466 38.9614C19.1433 39.192 19.1928 39.4396 19.192 39.6897C19.1912 39.9397 19.1402 40.1871 19.042 40.4171C18.9438 40.6471 18.8004 40.855 18.6203 41.0286C18.4401 41.2022 18.227 41.3379 17.9934 41.4277C17.7598 41.5175 17.5106 41.5596 17.2605 41.5513C16.037 41.5702 14.8136 41.5702 13.5902 41.5513C12.4891 41.5363 11.67 40.7179 11.6733 39.6778C11.6766 38.6377 12.4991 37.836 13.6019 37.816C14.2008 37.8076 14.803 37.816 15.4053 37.816Z" fill="black"/>
<path d="M26.6596 37.8259C27.2836 37.8259 27.9059 37.8109 28.5281 37.8259C29.0141 37.8376 29.4763 38.038 29.8168 38.3846C30.1572 38.7311 30.3491 39.1966 30.3517 39.6822C30.3543 40.1678 30.1674 40.6353 29.8307 40.9855C29.494 41.3357 29.0339 41.5411 28.5482 41.558C27.2825 41.5824 26.0162 41.5824 24.7494 41.558C24.2632 41.5391 23.8035 41.3314 23.4682 40.9791C23.1328 40.6269 22.9482 40.1578 22.9537 39.6717C22.9591 39.1855 23.1541 38.7207 23.4973 38.376C23.8404 38.0313 24.3046 37.834 24.7911 37.8259C25.4151 37.8026 26.039 37.8259 26.6596 37.8259Z" fill="black"/>
<path d="M37.904 37.826C38.5263 37.826 39.1503 37.811 39.7725 37.826C40.2584 37.8379 40.7205 38.0385 41.0608 38.3852C41.4011 38.732 41.5927 39.1975 41.5951 39.6831C41.5975 40.1687 41.4104 40.6361 41.0736 40.9861C40.7367 41.3362 40.2766 41.5413 39.7909 41.558C38.5263 41.583 37.2584 41.5847 35.9938 41.558C35.5076 41.5391 35.0479 41.3314 34.7126 40.9792C34.3772 40.6269 34.1926 40.1578 34.1981 39.6717C34.2035 39.1856 34.3985 38.7208 34.7417 38.3761C35.0848 38.0314 35.549 37.834 36.0355 37.826C36.6578 37.8043 37.2817 37.826 37.904 37.826Z" fill="black"/>
<path d="M49.1452 41.5581C48.5212 41.5581 47.8989 41.5731 47.2767 41.5581C47.0313 41.5565 46.7886 41.5067 46.5625 41.4115C46.3364 41.3162 46.1313 41.1774 45.9588 41.003C45.6106 40.6507 45.4167 40.1747 45.4198 39.6795C45.4229 39.1844 45.6228 38.7108 45.9754 38.3629C46.328 38.015 46.8045 37.8213 47.3 37.8243C48.5234 37.8055 49.7469 37.8055 50.9703 37.8243C52.0697 37.8377 52.8888 38.6578 52.8822 39.7029C52.8755 40.748 52.0564 41.5364 50.9469 41.5597C50.3497 41.568 49.7474 41.5597 49.1452 41.5581Z" fill="black"/>
<path d="M15.4069 49.0437C14.7847 49.0437 14.1607 49.0604 13.5384 49.0437C13.0429 49.0459 12.5667 48.8513 12.2147 48.5028C11.8628 48.1543 11.6638 47.6803 11.6616 47.1852C11.6594 46.6901 11.8541 46.2144 12.203 45.8627C12.5518 45.511 13.0262 45.3122 13.5217 45.31C14.788 45.2867 16.0559 45.285 17.3205 45.31C17.8059 45.3222 18.2675 45.5228 18.6072 45.8694C18.947 46.2159 19.1383 46.6811 19.1405 47.1663C19.1426 47.6514 18.9555 48.1183 18.6189 48.4679C18.2822 48.8174 17.8224 49.0222 17.3372 49.0387C16.6949 49.0637 16.0509 49.0437 15.4069 49.0437Z" fill="black"/>
<path d="M26.6597 45.3034C27.2836 45.3034 27.9059 45.2884 28.5282 45.3034C29.0141 45.315 29.4763 45.5154 29.8168 45.862C30.1572 46.2086 30.3491 46.6741 30.3517 47.1597C30.3543 47.6453 30.1675 48.1128 29.8307 48.463C29.494 48.8132 29.0339 49.0185 28.5482 49.0354C27.2825 49.0598 26.0163 49.0598 24.7495 49.0354C24.2543 49.0296 23.7818 48.8276 23.4357 48.4738C23.0897 48.1199 22.8985 47.6432 22.9043 47.1485C22.9101 46.6539 23.1123 46.1817 23.4664 45.836C23.8206 45.4903 24.2977 45.2993 24.7928 45.305C25.4168 45.29 26.0391 45.3034 26.6597 45.3034Z" fill="black"/>
<path d="M37.8941 49.0437C37.2701 49.0437 36.6478 49.0604 36.0256 49.0437C35.53 49.0468 35.0535 48.8531 34.7009 48.5052C34.3483 48.1573 34.1485 47.6837 34.1454 47.1885C34.1423 46.6934 34.3362 46.2174 34.6844 45.8651C35.0326 45.5128 35.5066 45.3131 36.0022 45.31C37.269 45.2856 38.5352 45.2856 39.8009 45.31C40.2864 45.3214 40.7484 45.5214 41.0887 45.8675C41.4291 46.2136 41.621 46.6787 41.6238 47.1639C41.6267 47.6491 41.4401 48.1163 41.1038 48.4663C40.7676 48.8163 40.308 49.0217 39.8226 49.0387C39.182 49.0637 38.5364 49.0437 37.8941 49.0437Z" fill="black"/>
<path d="M15.3786 56.5311C14.7763 56.5311 14.1741 56.5428 13.5718 56.5311C12.4774 56.5044 11.6582 55.6827 11.6699 54.6409C11.6765 54.1475 11.878 53.6768 12.2305 53.3311C12.583 52.9855 13.0579 52.7931 13.5518 52.7958C14.7963 52.7758 16.0415 52.7758 17.2871 52.7958C17.7731 52.8072 18.2354 53.0073 18.5761 53.3538C18.9167 53.7002 19.1089 54.1656 19.1117 54.6513C19.1145 55.1369 18.9278 55.6045 18.5912 55.9549C18.2546 56.3052 17.7946 56.5107 17.3088 56.5278C16.6665 56.5478 16.0209 56.5311 15.3786 56.5311Z" fill="black"/>
<path d="M26.6597 52.7891C27.2819 52.7891 27.9059 52.7758 28.5282 52.7891C28.7739 52.7913 29.0167 52.8418 29.2429 52.9378C29.4691 53.0338 29.6741 53.1733 29.8463 53.3484C30.0185 53.5236 30.1545 53.7309 30.2465 53.9585C30.3385 54.1861 30.3847 54.4297 30.3825 54.6751C30.3803 54.9206 30.3297 55.1633 30.2337 55.3892C30.1376 55.6152 29.998 55.82 29.8227 55.9921C29.6474 56.1641 29.4399 56.3 29.2121 56.3919C28.9842 56.4838 28.7405 56.53 28.4948 56.5278C27.2714 56.5456 26.048 56.5456 24.8245 56.5278C23.7251 56.5128 22.906 55.6944 22.911 54.6493C22.916 53.6042 23.7451 52.8158 24.8445 52.7908C25.4468 52.7808 26.0491 52.7891 26.6597 52.7891Z" fill="black"/>
<path d="M37.8957 52.7891C38.498 52.7891 39.1002 52.7891 39.7025 52.7891C40.8119 52.8091 41.6344 53.5976 41.6427 54.641C41.6511 55.6844 40.8403 56.5112 39.7375 56.5278C38.5141 56.5445 37.2907 56.5445 36.0672 56.5278C35.8172 56.533 35.5687 56.488 35.3364 56.3956C35.1041 56.3032 34.8926 56.1652 34.7146 55.9897C34.5365 55.8143 34.3954 55.605 34.2997 55.3742C34.2039 55.1435 34.1554 54.8958 34.157 54.646C34.157 53.6075 34.9912 52.8125 36.0939 52.7908C36.6928 52.7808 37.2951 52.7891 37.8957 52.7891Z" fill="black"/>
</g>
<defs>
<clipPath id="clip0_695_98">
<rect width="63.8945" height="63.8945" fill="white" transform="translate(0.300354 0.249023)"/>
</clipPath>
</defs>
</svg>
