<svg width="71" height="71" viewBox="0 0 71 71" fill="none" xmlns="http://www.w3.org/2000/svg">
<g clip-path="url(#clip0_396_110)">
<path d="M35.2337 53.1957C45.1616 53.1957 53.2099 45.1493 53.2099 35.2236C53.2099 25.2978 45.1616 17.2515 35.2337 17.2515C25.3057 17.2515 17.2574 25.2978 17.2574 35.2236C17.2574 45.1493 25.3057 53.1957 35.2337 53.1957Z" fill="#9BA577"/>
<path d="M36.8081 21.6398C36.8173 21.8539 36.7832 22.0676 36.708 22.2682C36.6328 22.4689 36.518 22.6523 36.3703 22.8076C36.2227 22.963 36.0453 23.087 35.8487 23.1723C35.6521 23.2576 35.4403 23.3025 35.226 23.3043C35.0117 23.306 34.7992 23.2646 34.6012 23.1825C34.4033 23.1005 34.2238 22.9794 34.0737 22.8265C33.9235 22.6736 33.8057 22.4921 33.7272 22.2927C33.6487 22.0933 33.6111 21.8801 33.6168 21.6659C33.6277 21.2523 33.7988 20.859 34.0942 20.569C34.3895 20.2791 34.7859 20.1151 35.1998 20.1117C35.6137 20.1084 36.0127 20.2658 36.3128 20.5509C36.6128 20.8359 36.7904 21.2263 36.8081 21.6398Z" fill="#010101"/>
<path d="M47.2943 41.8765C46.8709 41.8765 46.4647 41.7083 46.1653 41.4089C45.8659 41.1095 45.6976 40.7035 45.6976 40.2801C45.6976 39.8568 45.8659 39.4508 46.1653 39.1514C46.4647 38.852 46.8709 38.6838 47.2943 38.6838C47.7178 38.6838 48.1239 38.852 48.4233 39.1514C48.7228 39.4508 48.891 39.8568 48.891 40.2801C48.891 40.7035 48.7228 41.1095 48.4233 41.4089C48.1239 41.7083 47.7178 41.8765 47.2943 41.8765Z" fill="#010101"/>
<path d="M26.2617 45.0732C25.9464 45.0704 25.639 44.9743 25.3783 44.7972C25.1175 44.62 24.9151 44.3696 24.7964 44.0776C24.6778 43.7855 24.6483 43.4649 24.7116 43.1561C24.775 42.8474 24.9284 42.5643 25.1524 42.3425C25.3765 42.1207 25.6612 41.9703 25.9706 41.91C26.2801 41.8498 26.6005 41.8825 26.8914 42.004C27.1823 42.1256 27.4307 42.3305 27.6053 42.593C27.7799 42.8554 27.8728 43.1637 27.8724 43.4789C27.8682 43.9032 27.6966 44.3087 27.395 44.6072C27.0934 44.9057 26.6861 45.0732 26.2617 45.0732Z" fill="black"/>
<path d="M70.1772 33.6715C69.5732 32.0067 67.9785 30.7949 66.2711 30.7023C65.3525 30.6309 64.4337 30.8387 63.6354 31.2985C62.837 31.7583 62.1962 32.4487 61.7972 33.2789C61.6764 33.5245 61.6925 33.8828 61.2455 33.8627C60.4401 33.8345 59.6347 33.8466 58.8293 33.8627C58.5474 33.8627 58.4407 33.7782 58.4266 33.4843C58.2959 31.5071 57.8949 29.5571 57.2347 27.6888C57.134 27.401 57.1904 27.2379 57.4763 27.1031C58.0421 26.8373 58.5998 26.5535 59.1434 26.2455C59.9005 25.8167 60.1502 25.1021 59.8099 24.4097C59.4696 23.7172 58.6884 23.4333 57.8951 23.8058C57.3978 24.0372 56.9024 24.2828 56.4293 24.5626C56.1132 24.7478 55.9722 24.7015 55.8011 24.3734C55.0056 22.8359 54.0252 21.4015 52.8816 20.1018C52.6681 19.8603 52.6661 19.7093 52.9017 19.4879C53.4131 19.0067 53.9185 18.5156 54.3896 17.9942C54.6796 17.6741 54.9272 17.6178 55.3521 17.7768C56.2843 18.1363 57.3101 18.173 58.2657 17.8811C59.2212 17.5892 60.0513 16.9855 60.6233 16.1664C61.2014 15.3585 61.4975 14.3828 61.4657 13.3899C61.4339 12.3971 61.0761 11.4423 60.4475 10.673C59.8189 9.90366 58.9545 9.36263 57.9877 9.13341C57.0209 8.9042 56.0056 8.99954 55.0984 9.40472C53.25 10.1838 51.9453 12.1645 52.4909 14.1393C52.8936 15.6148 52.3178 16.3295 51.3916 17.1125C51.2542 17.2234 51.1293 17.3489 51.0191 17.4869C50.7835 17.7929 50.5862 17.7849 50.2943 17.5191C49.4113 16.7378 48.459 16.0384 47.4492 15.4296C46.8996 15.0894 46.0398 14.868 45.8707 14.397C45.6693 13.8535 46.374 13.2254 46.6438 12.6155C46.6539 12.5933 46.662 12.5692 46.672 12.545C47.0063 11.774 46.7808 11.0353 46.1002 10.6709C45.4197 10.3066 44.6707 10.5401 44.2438 11.2748C43.9522 11.7706 43.6881 12.282 43.4525 12.8067C43.2693 13.2093 43.0659 13.3361 42.6069 13.1711C40.8316 12.5474 38.9796 12.1681 37.102 12.0438C36.7215 12.0176 36.5705 11.923 36.5926 11.5224C36.6281 10.919 36.6281 10.3141 36.5926 9.7107C36.5544 9.15913 36.6873 8.84712 37.2531 8.58141C38.1433 8.15521 38.8669 7.44566 39.3104 6.56404C39.7538 5.68242 39.8921 4.67857 39.7034 3.70993C39.5092 2.7175 38.9926 1.81698 38.2338 1.14829C37.475 0.479594 36.5166 0.080161 35.5074 0.0120485C33.5765 -0.138927 31.6818 1.10108 30.9831 2.96915C30.2603 4.90163 30.818 7.19646 32.6281 8.18887C33.8362 8.84913 33.9832 9.63018 33.8664 10.7414C33.8433 11.0167 33.8433 11.2934 33.8664 11.5687C33.8865 11.8727 33.802 12.0116 33.4637 12.0337C31.5105 12.1583 29.5841 12.5533 27.7394 13.2073C27.3609 13.3401 27.2159 13.2073 27.0649 12.8832C26.8038 12.3147 26.5142 11.7598 26.1971 11.2204C26.1146 11.0651 26.0022 10.9275 25.8664 10.8155C25.7307 10.7036 25.5742 10.6195 25.4059 10.5681C25.2376 10.5167 25.0608 10.4989 24.8856 10.5159C24.7104 10.5328 24.5403 10.5841 24.385 10.6669C23.7186 11.0131 23.4689 11.7257 23.7709 12.4605C23.8676 12.6899 23.9843 12.9114 24.0991 13.1348C24.7213 14.3426 24.7213 14.3426 23.6058 15.0653C23.5635 15.0915 23.5212 15.1217 23.481 15.1518C23.1953 15.3402 22.9917 15.6297 22.911 15.9621C22.8303 16.2945 22.8785 16.6452 23.0461 16.9434C23.2096 17.2449 23.4802 17.4742 23.8044 17.586C24.1287 17.6978 24.4832 17.684 24.7978 17.5473C25.0486 17.4327 25.2932 17.305 25.5307 17.1648C28.571 15.5363 31.8187 14.7271 35.8134 14.7251C36.8104 14.752 37.8038 14.8543 38.7853 15.0311C50.3043 16.9434 57.9857 28.6168 55.2011 39.9802C54.7163 41.9769 53.9438 43.8925 52.9077 45.667C52.4326 46.4722 52.6037 47.2774 53.2923 47.7041C53.9809 48.1309 54.7923 47.8732 55.3058 47.0177C55.4934 46.7216 55.6641 46.4151 55.8172 46.0998C55.9642 45.7737 56.1172 45.7092 56.4434 45.8985C56.9395 46.1891 57.4525 46.4499 57.9796 46.6795C58.7427 47.0177 59.4857 46.7459 59.822 46.0474C60.1582 45.3489 59.9226 44.6625 59.2179 44.2478C58.7048 43.9355 58.1714 43.6577 57.6213 43.4164C57.1964 43.2373 57.1501 43.0259 57.2971 42.6213C57.7305 41.3662 58.0499 40.0747 58.2515 38.7624C58.3743 38.0558 58.1468 37.0372 58.6179 36.7111C59.1293 36.3568 60.0676 36.6487 60.8146 36.5863C61.3683 36.54 61.62 36.7272 61.8737 37.2365C62.3801 38.2877 63.2761 39.1005 64.3717 39.5026C65.4673 39.9047 66.6765 39.8644 67.7429 39.3904C68.7975 38.9225 69.6353 38.0719 70.0871 37.0105C70.5389 35.949 70.5711 34.7557 70.1772 33.6715ZM56.9447 11.7438C57.4184 11.7438 57.8727 11.9319 58.2076 12.2668C58.5425 12.6017 58.7307 13.0558 58.7307 13.5294C58.7307 14.0029 58.5425 14.4571 58.2076 14.7919C57.8727 15.1268 57.4184 15.3149 56.9447 15.3149C56.4751 15.3152 56.0237 15.1332 55.6856 14.8072C55.3476 14.4813 55.1493 14.0369 55.1326 13.5676C55.1331 13.0862 55.3238 12.6244 55.6632 12.2828C56.0026 11.9413 56.4632 11.7475 56.9447 11.7438ZM35.2114 6.32483C34.8611 6.31678 34.521 6.20507 34.2342 6.00382C33.9474 5.80257 33.7267 5.52081 33.6001 5.19418C33.4734 4.86755 33.4465 4.51071 33.5226 4.16876C33.5988 3.82682 33.7747 3.51514 34.028 3.27312C34.2814 3.0311 34.6008 2.86961 34.9459 2.80907C35.291 2.74852 35.6464 2.79165 35.967 2.93299C36.2876 3.07433 36.5591 3.30753 36.7472 3.60312C36.9352 3.89871 37.0314 4.24342 37.0235 4.59365C37.0093 5.06228 36.8113 5.50651 36.4722 5.83042C36.1332 6.15433 35.6803 6.33192 35.2114 6.32483ZM65.9469 37.0151C65.5907 37.0263 65.2392 36.9311 64.9373 36.7417C64.6354 36.5524 64.3967 36.2774 64.2517 35.9519C64.1068 35.6264 64.0621 35.2651 64.1234 34.914C64.1846 34.563 64.3491 34.2382 64.5958 33.981C64.8424 33.7238 65.1601 33.5459 65.5084 33.47C65.8566 33.3941 66.2195 33.4235 66.5509 33.5547C66.8823 33.6858 67.1671 33.9127 67.369 34.2063C67.5709 34.5 67.6808 34.8471 67.6845 35.2034C67.6916 35.6732 67.5131 36.1268 67.1879 36.466C66.8626 36.8051 66.4167 37.0024 65.9469 37.0151Z" fill="black"/>
<path d="M61.2396 55.5025C61.0549 54.9347 60.7585 54.4095 60.3678 53.958C59.977 53.5065 59.4998 53.1377 58.9643 52.8734C58.4288 52.6091 57.8458 52.4546 57.2497 52.419C56.6535 52.3834 56.0563 52.4674 55.4931 52.6662C54.9435 52.8514 54.6455 52.7427 54.2851 52.3461C53.5703 51.5711 52.8032 50.8464 52.0562 50.1016C51.0112 49.0609 50.4555 49.0609 49.3823 50.0674C45.4057 53.8116 40.67 55.6676 35.2216 55.728C33.7385 55.7347 32.2594 55.5747 30.8121 55.2509C21.6609 53.2882 14.8816 45.0349 14.7326 35.7046C14.64 30.0118 16.5669 25.1082 20.475 20.9775C21.3488 20.0535 21.3529 19.4154 20.475 18.5256C19.6978 17.7406 18.9327 16.9414 18.1233 16.1906C17.7206 15.8262 17.6199 15.5404 17.8253 14.9828C18.1504 14.0533 18.1602 13.0426 17.853 12.1071C17.5458 11.1715 16.9388 10.3633 16.1259 9.80733C15.2923 9.25986 14.306 8.99222 13.3099 9.04326C12.3139 9.0943 11.3601 9.46136 10.5869 10.0912C9.82756 10.7396 9.30393 11.6207 9.09745 12.5975C8.89098 13.5743 9.01325 14.5919 9.44523 15.492C10.3171 17.3178 12.3748 18.5397 14.2775 17.962C15.5843 17.5594 16.2548 18.0023 16.9494 18.8819C17.0736 19.0406 17.217 19.1833 17.3763 19.3067C17.779 19.6066 17.8132 19.8583 17.4407 20.2548C16.699 21.0731 16.0426 21.9648 15.4816 22.916C15.1292 23.4917 14.9098 24.3754 14.4145 24.5727C13.8467 24.7962 13.2064 24.0634 12.5661 23.7917C11.7607 23.4454 11.0037 23.683 10.6513 24.4117C10.3171 25.1041 10.5687 25.8208 11.3258 26.2435C11.805 26.5132 12.2943 26.7669 12.7956 26.9964C13.1983 27.1775 13.3393 27.3627 13.1621 27.8418C12.7243 29.0959 12.4068 30.3886 12.2137 31.7028C12.095 32.4093 12.3265 33.4259 11.8493 33.75C11.3298 34.1023 10.3936 33.7943 9.64859 33.8728C9.06268 33.9332 8.84321 33.6876 8.59958 33.2045C8.16847 32.3169 7.45715 31.596 6.57543 31.1528C5.6937 30.7097 4.69059 30.5691 3.72096 30.7526C2.72774 30.9457 1.82604 31.4611 1.1558 32.2189C0.485554 32.9767 0.0842507 33.9345 0.0141708 34.9437C-0.140866 36.8722 1.09741 38.7684 2.96993 39.4689C4.84245 40.1695 7.19821 39.6702 8.1385 37.8847C8.84724 36.5501 9.74927 36.5199 10.8949 36.5903C11.1202 36.6054 11.3462 36.6054 11.5715 36.5903C11.8694 36.5702 12.0164 36.6427 12.0406 36.9929C12.162 38.9456 12.5578 40.8715 13.2164 42.7139C13.3514 43.0863 13.2165 43.2413 12.8963 43.3923C12.3527 43.6439 11.8211 43.9237 11.2996 44.2216C10.5547 44.6464 10.315 45.3751 10.6654 46.0676C11.0157 46.76 11.7527 47.0096 12.5218 46.6715C12.9836 46.4772 13.4305 46.2491 13.8587 45.989C14.2896 45.7173 14.5111 45.7455 14.7547 46.2427C15.242 47.2041 15.8169 48.1185 16.4722 48.9743C16.8991 49.5521 17.7306 50.1821 17.6582 50.6854C17.5696 51.2893 16.6897 51.7583 16.1964 52.324C15.8259 52.7507 15.5017 52.8453 14.9219 52.646C13.9882 52.3263 12.9747 52.3254 12.0404 52.6434C11.1062 52.9614 10.3039 53.5804 9.75933 54.4034C9.21308 55.2236 8.94889 56.1994 9.00672 57.1831C9.06456 58.1668 9.44127 59.1049 10.0799 59.8554C10.7185 60.606 11.5842 61.1283 12.5461 61.3431C13.508 61.558 14.5137 61.4538 15.4111 61.0463C17.2615 60.2069 18.532 58.2281 17.9702 56.2735C17.5555 54.8261 18.1092 54.1216 19.0354 53.3587C19.1731 53.2495 19.2974 53.1245 19.4058 52.9862C19.6575 52.6581 19.8669 52.6501 20.1871 52.942C21.0291 53.6962 21.9398 54.3701 22.9073 54.955C23.461 55.2952 24.3167 55.4924 24.518 55.9615C24.7435 56.505 24.0288 57.129 23.7791 57.743C23.4811 58.4777 23.6985 59.2145 24.3388 59.5547C25.0294 59.9311 25.7805 59.7177 26.2093 58.9951C26.4824 58.5425 26.7239 58.0717 26.9322 57.586C27.1114 57.1592 27.3208 57.0445 27.7738 57.2216C29.0362 57.7208 30.3671 57.9785 31.7 58.214C32.4048 58.3408 33.4256 58.1073 33.7518 58.5743C34.1082 59.0856 33.8162 60.0237 33.8786 60.7705C33.9229 61.3221 33.7437 61.5918 33.2303 61.8334C32.3394 62.2579 31.6141 62.9651 31.1672 63.8448C30.7204 64.7245 30.5771 65.7272 30.7598 66.6968C30.9494 67.6904 31.4616 68.5937 32.2169 69.2667C32.9723 69.9396 33.9287 70.3446 34.9377 70.4188C36.8867 70.5879 38.8076 69.3198 39.5002 67.4094C40.1928 65.4991 39.623 63.1982 37.8532 62.2521C36.6069 61.5838 36.5042 60.7524 36.6008 59.6352C36.623 59.4096 36.623 59.1824 36.6008 58.9568C36.5505 58.5401 36.7095 58.4153 37.1344 58.3871C38.5092 58.3066 39.8717 58.082 41.1996 57.7168C41.87 57.5155 42.6311 57.0445 43.1828 57.2196C43.7345 57.3947 43.8634 58.365 44.2238 58.9588C44.6668 59.6875 45.3815 59.9392 46.0782 59.599C46.7748 59.2588 47.0145 58.4817 46.6822 57.7329C46.4767 57.2771 46.2476 56.8322 45.9956 56.4003C45.8245 56.1044 45.8325 55.9433 46.1708 55.7682C47.6845 54.9834 49.0958 54.0152 50.3729 52.8856C50.6185 52.6702 50.7756 52.6843 50.989 52.9138C51.436 53.3888 51.8931 53.8559 52.3723 54.2967C52.7347 54.6289 52.8434 54.9006 52.6562 55.4381C52.0521 57.1693 52.3964 58.7736 53.6931 60.0861C54.9898 61.3986 56.6187 61.7851 58.3966 61.1973C59.5279 60.8175 60.4624 60.0048 60.9953 58.9373C61.5283 57.8698 61.6161 56.6346 61.2396 55.5025ZM13.5608 15.327C13.2048 15.3294 12.8562 15.2257 12.5594 15.0292C12.2627 14.8327 12.0311 14.5523 11.8944 14.2237C11.7576 13.8952 11.7218 13.5333 11.7916 13.1844C11.8614 12.8354 12.0335 12.5151 12.286 12.2643C12.5386 12.0135 12.8601 11.8436 13.2096 11.7763C13.5592 11.7089 13.9208 11.7471 14.2485 11.8861C14.5762 12.025 14.8551 12.2584 15.0496 12.5565C15.2441 12.8545 15.3454 13.2037 15.3407 13.5596C15.3254 14.0255 15.1326 14.4681 14.8017 14.7966C14.4709 15.1252 14.0269 15.3149 13.5608 15.327ZM4.54044 37.0171C4.1871 37.0186 3.84119 36.9157 3.54611 36.7214C3.25102 36.5271 3.0199 36.25 2.88173 35.9249C2.74356 35.5997 2.7045 35.2411 2.76946 34.8938C2.83441 34.5466 3.00048 34.2262 3.24683 33.973C3.49318 33.7198 3.80885 33.5449 4.15423 33.4703C4.49961 33.3958 4.85932 33.4248 5.18824 33.5539C5.51716 33.6829 5.80064 33.9062 6.00311 34.1957C6.20559 34.4852 6.31805 34.8281 6.32638 35.1812C6.33256 35.4198 6.29095 35.6571 6.20402 35.8794C6.11709 36.1016 5.98658 36.3042 5.82017 36.4752C5.65377 36.6463 5.45483 36.7824 5.23505 36.8754C5.01528 36.9685 4.77911 37.0166 4.54044 37.0171ZM13.5024 58.7012C13.1465 58.6937 12.8009 58.5804 12.5097 58.3757C12.2184 58.1711 11.9948 57.8843 11.8672 57.5521C11.7396 57.2198 11.7139 56.8571 11.7933 56.5102C11.8728 56.1633 12.0537 55.8479 12.3132 55.6042C12.5726 55.3605 12.8988 55.1996 13.2501 55.142C13.6013 55.0844 13.9618 55.1327 14.2855 55.2808C14.6092 55.4288 14.8815 55.6699 15.0676 55.9732C15.2538 56.2766 15.3453 56.6285 15.3306 56.9841C15.3014 57.449 15.0961 57.8854 14.7565 58.2044C14.4168 58.5234 13.9684 58.7011 13.5024 58.7012ZM37.0257 65.8916C37.0302 66.2443 36.9305 66.5905 36.7391 66.8868C36.5476 67.1831 36.273 67.4164 35.9495 67.5572C35.626 67.6981 35.2682 67.7404 34.9208 67.6788C34.5734 67.6171 34.2519 67.4543 33.9966 67.2108C33.7414 66.9673 33.5637 66.6538 33.4859 66.3098C33.4081 65.9657 33.4337 65.6063 33.5593 65.2767C33.685 64.9471 33.9052 64.6619 34.1923 64.4569C34.4794 64.2518 34.8206 64.1361 35.1733 64.1242C35.4116 64.1161 35.6492 64.1557 35.872 64.2406C36.0948 64.3255 36.2985 64.4541 36.471 64.6187C36.6435 64.7833 36.7815 64.9806 36.8767 65.1992C36.9719 65.4178 37.0226 65.6532 37.0257 65.8916ZM56.9247 58.7012C56.5719 58.7015 56.2268 58.5976 55.9327 58.4027C55.6386 58.2077 55.4087 57.9302 55.2717 57.6051C55.1347 57.28 55.0968 56.9217 55.1626 56.5751C55.2285 56.2286 55.3953 55.9091 55.642 55.6569C55.8887 55.4047 56.2044 55.2309 56.5495 55.1574C56.8946 55.0838 57.2538 55.1138 57.5819 55.2435C57.9101 55.3732 58.1926 55.5968 58.3941 55.8864C58.5956 56.176 58.7072 56.5186 58.7147 56.8713C58.7143 57.3496 58.5268 57.8087 58.1924 58.1506C57.8579 58.4925 57.4029 58.6901 56.9247 58.7012Z" fill="black"/>
<path d="M26.8093 25.4765C25.7009 25.4781 24.6179 25.8086 23.6975 26.426C22.7771 27.0435 22.0607 27.9201 21.639 28.945C21.2174 29.9698 21.1094 31.0967 21.3288 32.1829C21.5483 33.2691 22.0852 34.2658 22.8716 35.0467C23.6581 35.8276 24.6586 36.3576 25.7466 36.5695C26.8345 36.7814 27.9609 36.6658 28.9831 36.2372C30.0052 35.8086 30.8771 35.0864 31.4884 34.162C32.0997 33.2376 32.4228 32.1526 32.4168 31.0445C32.4078 29.5639 31.8129 28.1472 30.7621 27.1038C29.7114 26.0605 28.2902 25.4754 26.8093 25.4765ZM26.7912 34.2431C26.1644 34.238 25.5532 34.0473 25.0346 33.6952C24.5161 33.3431 24.1134 32.8454 23.8775 32.2648C23.6416 31.6842 23.5829 31.0468 23.709 30.4329C23.835 29.819 24.1401 29.2562 24.5857 28.8154C25.0313 28.3747 25.5975 28.0758 26.2128 27.9564C26.8282 27.837 27.4651 27.9025 28.0433 28.1446C28.6214 28.3867 29.1149 28.7945 29.4615 29.3167C29.8081 29.8389 29.9922 30.452 29.9906 31.0787C29.979 31.9203 29.6371 32.7236 29.0386 33.3155C28.4402 33.9074 27.633 34.2406 26.7912 34.2431Z" fill="black"/>
<path d="M36.8 40.405C36.0635 40.4082 35.3445 40.6295 34.7339 41.0411C34.1232 41.4527 33.6483 42.036 33.3692 42.7174C33.09 43.3987 33.0191 44.1475 33.1655 44.8691C33.3118 45.5907 33.6689 46.2527 34.1915 46.7715C34.714 47.2903 35.3787 47.6426 36.1015 47.7839C36.8243 47.9251 37.5727 47.849 38.2522 47.5651C38.9317 47.2813 39.5118 46.8024 39.9192 46.189C40.3266 45.5756 40.543 44.8553 40.541 44.119C40.5357 43.1311 40.139 42.1855 39.4378 41.4894C38.7366 40.7933 37.7881 40.4034 36.8 40.405ZM36.8 45.3972C36.4645 45.393 36.1441 45.2574 35.9077 45.0195C35.6712 44.7816 35.5376 44.4604 35.5355 44.125C35.5312 43.9529 35.5617 43.7817 35.6251 43.6216C35.6885 43.4615 35.7836 43.3158 35.9046 43.1933C36.0256 43.0708 36.1701 42.974 36.3294 42.9086C36.4887 42.8432 36.6596 42.8106 36.8318 42.8128C37.004 42.815 37.174 42.8519 37.3316 42.9212C37.4892 42.9906 37.6312 43.091 37.7491 43.2166C37.867 43.3421 37.9584 43.4901 38.0178 43.6517C38.0771 43.8133 38.1033 43.9853 38.0946 44.1572C38.0872 44.4947 37.9464 44.8154 37.703 45.0493C37.4596 45.2832 37.1335 45.4112 36.7959 45.4053L36.8 45.3972Z" fill="black"/>
<path d="M42.6744 25.0002C41.9395 25.009 41.2236 25.2353 40.6173 25.6505C40.0109 26.0658 39.5412 26.6514 39.2675 27.3334C38.9938 28.0153 38.9283 28.7631 39.0794 29.4822C39.2305 30.2013 39.5914 30.8596 40.1164 31.3738C40.6414 31.8881 41.3071 32.2352 42.0293 32.3715C42.7516 32.5077 43.498 32.427 44.1744 32.1394C44.8507 31.8518 45.4267 31.3702 45.8295 30.7556C46.2323 30.141 46.4439 29.4208 46.4376 28.686C46.427 27.6985 46.0246 26.7555 45.319 26.0644C44.6134 25.3733 43.6622 24.9905 42.6744 25.0002ZM42.7248 29.9743C42.5587 29.9783 42.3934 29.9494 42.2386 29.8892C42.0837 29.829 41.9423 29.7388 41.8225 29.6237C41.7027 29.5086 41.6069 29.3709 41.5406 29.2186C41.4742 29.0663 41.4388 28.9024 41.4362 28.7363C41.4347 28.5682 41.4664 28.4014 41.5294 28.2455C41.5924 28.0896 41.6855 27.9477 41.8034 27.8278C41.9213 27.7079 42.0616 27.6123 42.2164 27.5467C42.3712 27.481 42.5375 27.4464 42.7056 27.445C42.8738 27.4435 43.0406 27.4752 43.1965 27.5382C43.3525 27.6012 43.4944 27.6943 43.6144 27.8121C43.7343 27.93 43.8299 28.0703 43.8956 28.2251C43.9613 28.3798 43.9958 28.546 43.9973 28.7142C43.9936 29.0497 43.8577 29.3702 43.619 29.6061C43.3804 29.842 43.0584 29.9743 42.7228 29.9743H42.7248Z" fill="black"/>
</g>
<defs>
<clipPath id="clip0_396_110">
<rect width="70.4491" height="70.4491" fill="white"/>
</clipPath>
</defs>
</svg>
