<svg width="87" height="55" viewBox="0 0 87 55" fill="none" xmlns="http://www.w3.org/2000/svg">
<g clip-path="url(#clip0_396_182)">
<path d="M37.9771 39.9559L23.7341 15.251L9.48511 39.9559H37.9771Z" fill="#222222"/>
<path d="M8.76216 41.8619H9.51493L2.38149 54.4661H0.427856L8.76216 41.8619Z" fill="black"/>
<path d="M11.6538 41.8739H12.4066L5.26718 54.478L3.31952 54.4661L11.6538 41.8739Z" fill="black"/>
<path d="M14.5515 41.8739H15.3042L8.17079 54.478H6.21716L14.5515 41.8739Z" fill="black"/>
<path d="M17.455 41.8739H18.2077L11.0683 54.478H9.12067L17.455 41.8739Z" fill="black"/>
<path d="M20.3346 41.8739H21.1053L13.9599 54.478H12.0182L20.3346 41.8739Z" fill="black"/>
<path d="M23.2442 41.8859H23.997L16.8695 54.4781H14.9099L23.2442 41.8859Z" fill="black"/>
<path d="M26.1358 41.8859H26.9065L19.7491 54.4781H17.8015L26.1358 41.8859Z" fill="black"/>
<path d="M29.0333 41.8859H29.7861L22.6527 54.4901L20.699 54.4781L29.0333 41.8859Z" fill="black"/>
<path d="M31.9369 41.8859H32.6957L25.5503 54.4901H23.6086L31.9369 41.8859Z" fill="black"/>
<path d="M34.8345 41.8859H35.5873L28.4419 54.4901H26.5062L34.8345 41.8859Z" fill="black"/>
<path d="M37.7261 41.8978H38.4849L31.3515 54.49H29.3978L37.7261 41.8978Z" fill="black"/>
<path d="M42.9896 46.8543H45.5825L46.2696 45.1522C46.2696 45.1522 46.7834 43.492 45.0747 43.4261H42.1472C41.6049 43.4935 41.0828 43.6752 40.6154 43.9593C40.1479 44.2433 39.7456 44.6233 39.4348 45.0743L38.467 47.5915C38.467 47.5915 37.535 49.4495 39.8172 49.9889C39.8172 49.9889 41.4841 50.0548 41.0121 51.0797C40.8821 51.5852 40.6809 52.0695 40.4146 52.5181C40.092 52.9316 38.8912 53.1174 39.1481 52.3443C39.303 52.0227 39.4155 51.6822 39.4826 51.3314C39.4789 51.2718 39.4633 51.2135 39.4368 51.16C39.4103 51.1065 39.3735 51.0588 39.3284 51.0198C39.2834 50.9807 39.231 50.951 39.1744 50.9325C39.1178 50.914 39.0581 50.907 38.9987 50.9119H36.9196L35.9936 53.3692C35.9936 53.3692 35.8263 54.5319 37.5887 54.5678H39.9785C39.9785 54.5678 42.7447 54.8495 44.1606 50.6362C44.1606 50.6362 44.758 48.6404 43.3361 48.2388C42.7583 48.0624 42.1934 47.8461 41.6454 47.5915C41.5319 47.5316 41.3885 47.154 41.9799 45.9793C41.9799 45.9793 42.1412 45.314 42.7327 45.314C42.7327 45.314 43.4019 45.2361 43.3302 45.8055L42.9896 46.8543Z" fill="black"/>
<path d="M54.7712 45.1522C54.7712 45.1522 55.285 43.492 53.5763 43.4261H50.6428C50.103 43.4937 49.5836 43.6757 49.1191 43.9598C48.6546 44.2439 48.2556 44.6238 47.9484 45.0743L44.4952 53.3572C44.4952 53.3572 44.3279 54.5199 46.0903 54.5559H48.4801C48.4801 54.5559 50.6548 54.9514 52.1125 51.3913L54.7712 45.1522ZM48.9162 52.4701C48.6892 52.9197 47.4585 52.8717 47.7213 52.1225C47.7213 52.1225 49.9916 46.9202 50.4815 45.9973C50.4815 45.9973 50.6488 45.332 51.2343 45.332C51.2343 45.332 51.9632 45.2661 51.7421 45.9313L49.4778 51.0377L48.9162 52.4701Z" fill="black"/>
<path d="M65.8895 43.4261H71.0574L70.1911 45.4878H67.9089L66.7319 48.029H69.0201L67.9925 50.1507H65.8895L63.8702 54.5918H61.0861L65.8895 43.4261Z" fill="#222222"/>
<path d="M74.0625 52.4462L73.2081 54.6159H67.6639L72.4434 43.4561H77.6053L76.751 45.5179H74.4568L73.2619 48.0531H75.5561L74.5404 50.1747H72.4255L71.362 52.4762L74.0625 52.4462Z" fill="#222222"/>
<path d="M83.4005 50.6541C81.7157 55.6047 79.2184 54.5858 79.2184 54.5858H76.8286C74.63 54.6577 75.4963 52.4462 75.4963 52.4462L79.2244 43.4561H82.2116L78.3282 52.3323C78.0713 52.8657 79.4036 52.8957 79.5888 52.5061C79.6724 52.2963 79.7501 52.1225 79.7501 52.1225L83.5259 43.4261H86.5729L83.4005 50.6541Z" fill="#222222"/>
<path d="M62.2749 43.4261H57.6388L52.6741 54.6158H55.6613L57.0234 51.3853H58.4394C58.4394 51.3853 61.2234 52.2004 62.717 47.0941L63.4579 45.1941C63.4579 45.1941 63.9537 43.492 62.2749 43.4261ZM60.166 46.8543L59.4789 48.6523C59.4789 48.6523 59.3116 49.3296 58.7321 49.3296C58.7321 49.3296 58.051 49.4135 58.1347 48.8261L58.4752 47.8073L59.1443 46.0512C59.1443 46.0512 59.3116 45.3859 59.9031 45.3859C59.9031 45.3859 60.6021 45.308 60.5005 45.8774L60.166 46.8543Z" fill="black"/>
<path d="M40.0741 39.6143L39.6857 38.9551L54.1378 38.8412L55.1176 40.5433L40.0741 39.6143Z" fill="black"/>
<path d="M38.6163 37.0912L38.2399 36.4259L52.686 36.3181L53.6658 38.0142L38.6163 37.0912Z" fill="black"/>
<path d="M37.1705 34.5799L36.8061 33.9266L51.2462 33.8068L52.226 35.5029L37.1705 34.5799Z" fill="black"/>
<path d="M35.7308 32.0506L35.3484 31.3973L49.8065 31.2834L50.7683 32.9736L35.7308 32.0506Z" fill="black"/>
<path d="M34.2849 29.5454L33.8965 28.8862L48.3546 28.7723L49.3284 30.4744L34.2849 29.5454Z" fill="black"/>
<path d="M32.8391 27.0221L32.4567 26.3569L46.8969 26.243L47.8767 27.9511L32.8391 27.0221Z" fill="black"/>
<path d="M31.3813 24.5109L31.0169 23.8516L45.4571 23.7437L46.4249 25.4339L31.3813 24.5109Z" fill="black"/>
<path d="M29.9296 21.9817L29.5591 21.3284L44.0172 21.2145L44.9791 22.9047L29.9296 21.9817Z" fill="black"/>
<path d="M28.4957 19.4705L28.1074 18.8172L42.5654 18.7033L43.5452 20.4054L28.4957 19.4705Z" fill="black"/>
<path d="M27.0498 16.9532L26.6555 16.2879L41.1076 16.1741L42.0874 17.8822L27.0498 16.9532Z" fill="black"/>
<path d="M25.5921 14.43L25.2157 13.7708L39.6558 13.6749L40.6356 15.365L25.5921 14.43Z" fill="black"/>
<path d="M22.4616 13.7947L22.0732 14.448L14.7665 1.94572L15.7463 0.243591L22.4616 13.7947Z" fill="black"/>
<path d="M21.0097 16.3239L20.6154 16.9652L13.3207 4.45093L14.2945 2.76678L21.0097 16.3239Z" fill="black"/>
<path d="M19.552 18.8232L19.1637 19.4705L11.863 6.97426L12.8428 5.28412L19.552 18.8232Z" fill="black"/>
<path d="M18.1002 21.3404L17.7059 21.9936L10.4052 9.49138L11.385 7.78925L18.1002 21.3404Z" fill="black"/>
<path d="M16.6485 23.8517L16.2542 24.5109L8.95343 11.9907L9.93921 10.3005L16.6485 23.8517Z" fill="black"/>
<path d="M15.1907 26.3569L14.8143 27.0222L7.50159 14.5199L8.48139 12.8298L15.1907 26.3569Z" fill="black"/>
<path d="M13.733 28.8862L13.3506 29.5455L6.04987 17.0312L7.02369 15.3411L13.733 28.8862Z" fill="black"/>
<path d="M12.2871 31.3974L11.9048 32.0507L4.5921 19.5484L5.5719 17.8463L12.2871 31.3974Z" fill="black"/>
<path d="M10.8294 33.9026L10.453 34.5679L3.1463 22.0477L4.12013 20.3695L10.8294 33.9026Z" fill="black"/>
<path d="M9.37157 36.4258L8.99518 37.0911L1.68848 24.5768L2.66231 22.8867L9.37157 36.4258Z" fill="black"/>
<path d="M7.91984 38.9432L7.56137 39.5964L0.230774 27.0882L1.21058 25.386L7.91984 38.9432Z" fill="black"/>
</g>
<defs>
<clipPath id="clip0_396_182">
<rect width="86.372" height="54.4262" fill="white" transform="translate(0.230774 0.243591)"/>
</clipPath>
</defs>
</svg>
