<svg width="46" height="65" viewBox="0 0 46 65" fill="none" xmlns="http://www.w3.org/2000/svg">
<g clip-path="url(#clip0_396_227)">
<path d="M31.6527 5.15612H29.3624V3.49992H17.4131V5.15612H15.1228V3.3343C15.1228 3.00694 15.1787 2.68281 15.2873 2.38054C15.3959 2.07826 15.5551 1.8038 15.7557 1.57294C15.9563 1.34208 16.1944 1.15937 16.4562 1.0353C16.718 0.911236 16.9984 0.848265 17.2814 0.850011H29.5285C30.0969 0.851765 30.6416 1.11427 31.043 1.57997C31.4444 2.04568 31.6698 2.67657 31.6698 3.3343L31.6527 5.15612Z" fill="#282D33"/>
<path d="M3.53986 10.7873V60.4731C3.53986 61.2251 3.79804 61.9463 4.25761 62.4781C4.71718 63.0098 5.34049 63.3085 5.99042 63.3085H40.8308C41.4808 63.3085 42.1041 63.0098 42.5636 62.4781C43.0232 61.9463 43.2814 61.2251 43.2814 60.4731V10.7873H3.53986Z" fill="white"/>
<path d="M40.8079 64.6599H5.96754C5.01437 64.6512 4.10308 64.2056 3.43338 63.4208C2.76367 62.636 2.39018 61.576 2.39476 60.4731V9.46228H44.4265V60.4731C44.4288 61.0236 44.3368 61.5693 44.1557 62.0784C43.9747 62.5876 43.7082 63.0502 43.3717 63.4395C43.0353 63.8288 42.6355 64.1371 42.1954 64.3466C41.7554 64.5561 41.2838 64.6626 40.8079 64.6599ZM4.685 12.1122V60.4731C4.685 60.8737 4.82254 61.2579 5.06736 61.5411C5.31218 61.8244 5.64422 61.9835 5.99044 61.9835H40.8308C41.1766 61.9818 41.5078 61.8221 41.7523 61.5392C41.9968 61.2563 42.1348 60.8731 42.1363 60.4731V12.1122H4.685Z" fill="#282D33"/>
<path d="M39.8231 17.412H6.95233V59.3601H39.8231V17.412Z" fill="#98A876"/>
<path d="M44.7013 13.351V10.9197C44.7199 10.1931 44.4897 9.48749 44.0607 8.95644C43.6318 8.42539 43.0389 8.11193 42.4111 8.08429H4.37008C3.7418 8.11021 3.14801 8.42316 2.71874 8.9546C2.28948 9.48604 2.05974 10.1927 2.07983 10.9197V13.351H44.7013Z" fill="white"/>
<path d="M45.8464 14.6759H0.923173V10.9197C0.903195 9.84132 1.25362 8.79777 1.89761 8.01788C2.54159 7.23799 3.42659 6.7854 4.35855 6.75934H42.3938C43.3253 6.78713 44.2094 7.24025 44.8531 8.01976C45.4967 8.79927 45.8477 9.84182 45.8292 10.9197L45.8464 14.6759ZM3.21915 12.026H43.5561V10.9197C43.575 10.5444 43.4655 10.1755 43.2512 9.89283C43.0369 9.61018 42.7351 9.43646 42.411 9.40925H4.37C4.0459 9.43646 3.74407 9.61018 3.52978 9.89283C3.3155 10.1755 3.20597 10.5444 3.22487 10.9197L3.21915 12.026Z" fill="#282D33"/>
<path d="M11.5557 18.6575H9.26544V57.8563H11.5557V18.6575Z" fill="#282D33"/>
<path d="M17.9054 18.6575H15.6152V57.8563H17.9054V18.6575Z" fill="#282D33"/>
<path d="M24.2494 18.6575H21.9592V57.8563H24.2494V18.6575Z" fill="#282D33"/>
<path d="M30.5934 18.6575H28.3032V57.8563H30.5934V18.6575Z" fill="#282D33"/>
<path d="M36.9431 18.6575H34.6529V57.8563H36.9431V18.6575Z" fill="#282D33"/>
</g>
<defs>
<clipPath id="clip0_396_227">
<rect width="44.9232" height="63.8099" fill="white" transform="translate(0.923279 0.850037)"/>
</clipPath>
</defs>
</svg>
