<svg width="35" height="35" viewBox="0 0 35 35" fill="none" xmlns="http://www.w3.org/2000/svg">
<path d="M31.25 16.9034C31.25 9.33506 25.1502 3.20001 17.6267 3.20001C10.0998 3.20171 4 9.33506 4 16.9051C4 23.7432 8.98272 29.4118 15.4947 30.44V20.8646H12.0377V16.9051H15.4981V13.8836C15.4981 10.4501 17.533 8.55371 20.6443 8.55371C22.136 8.55371 23.6942 8.82096 23.6942 8.82096V12.1915H21.9759C20.2849 12.1915 19.757 13.2486 19.757 14.333V16.9034H23.5341L22.9313 20.8629H19.7553V30.4383C26.2673 29.4101 31.25 23.7415 31.25 16.9034Z" fill="#41728B"/>
<path d="M0.599976 18.0728V15.9447C0.649652 15.5404 0.688684 15.1343 0.749892 14.7317C1.37085 10.5021 3.2621 6.94639 6.50971 4.1701C10.616 0.659621 15.392 -0.662463 20.703 0.310258C30.2835 2.06594 36.3724 11.4828 34.1423 20.952C32.6041 27.4773 27.1184 32.6361 20.5318 33.7472C19.9108 33.8518 19.2899 33.9245 18.6689 34.0061H16.5399C16.3235 33.9786 16.1061 33.9485 15.8888 33.9245C12.5285 33.5557 9.51514 32.3355 6.9018 30.1888C3.64444 27.5136 1.61213 24.098 0.860778 19.9402C0.749892 19.3204 0.688684 18.6944 0.599976 18.0728ZM32.6129 17.0088C32.6076 8.73666 25.8596 2.00033 17.5893 2.01274C9.31909 2.02515 2.603 8.74198 2.59236 16.9981C2.58171 25.2543 9.32708 32.0092 17.5991 32.0119C25.8711 32.0146 32.6183 25.272 32.6129 17.0052V17.0088Z" fill="black"/>
</svg>
