<svg width="34" height="34" viewBox="0 0 34 34" fill="none" xmlns="http://www.w3.org/2000/svg">
<path d="M0 18.0696V15.9419C0.0496721 15.5376 0.0887004 15.1315 0.149903 14.7291C0.770805 10.5002 2.66189 6.94515 5.9092 4.16936C10.0151 0.659503 14.7908 -0.662344 20.1012 0.310202C29.6808 2.06557 35.7692 11.4807 33.5393 20.9482C32.0012 27.4723 26.516 32.6303 19.93 33.7411C19.3091 33.8457 18.6882 33.9184 18.0673 34H15.9385C15.7221 33.9725 15.5048 33.9424 15.2875 33.9184C11.9275 33.5496 8.91436 32.3297 6.30126 30.1834C3.04419 27.5087 1.01207 24.0937 0.260779 19.9367C0.149903 19.317 0.0887002 18.6911 0 18.0696ZM32.0101 17.0057C32.0048 8.73509 25.2574 1.99997 16.9879 2.01238C8.71834 2.02479 2.00285 8.74041 1.99221 16.9951C1.98156 25.2498 8.72632 32.0035 16.9976 32.0061C25.2689 32.0088 32.0154 25.2675 32.0101 17.0022V17.0057Z" fill="black"/>
<ellipse cx="16.9783" cy="16.9732" rx="13.8467" ry="13.8416" fill="#AF6682"/>
<path fill-rule="evenodd" clip-rule="evenodd" d="M13.5886 8.2678C14.5639 8.2229 14.8749 8.21292 17.3594 8.21292C19.8439 8.21292 20.1548 8.22373 21.1294 8.2678C22.1039 8.31187 22.7691 8.46736 23.3511 8.69269C23.9606 8.92302 24.5135 9.28305 24.9709 9.74869C25.4365 10.2052 25.7957 10.7573 26.0252 11.3676C26.2514 11.9496 26.406 12.6148 26.4509 13.5877C26.4958 14.5647 26.5058 14.8757 26.5058 17.3593C26.5058 19.8438 26.495 20.1548 26.4509 21.1302C26.4068 22.103 26.2514 22.7682 26.0252 23.3502C25.7957 23.9606 25.4359 24.5137 24.9709 24.9708C24.5135 25.4365 23.9606 25.7957 23.3511 26.0252C22.7691 26.2513 22.1039 26.406 21.131 26.4509C20.1548 26.4958 19.8439 26.5058 17.3594 26.5058C14.8749 26.5058 14.5639 26.4949 13.5886 26.4509C12.6157 26.4068 11.9505 26.2513 11.3685 26.0252C10.7581 25.7956 10.2051 25.4358 9.74789 24.9708C9.28257 24.5141 8.92248 23.9613 8.69272 23.3511C8.46739 22.769 8.31273 22.1038 8.26783 21.131C8.22293 20.154 8.21295 19.843 8.21295 17.3593C8.21295 14.8748 8.22376 14.5639 8.26783 13.5894C8.3119 12.6148 8.46739 11.9496 8.69272 11.3676C8.92282 10.7574 9.28318 10.2046 9.74872 9.74786C10.2052 9.28264 10.7577 8.92255 11.3676 8.69269C11.9497 8.46736 12.6149 8.3127 13.5877 8.2678H13.5886ZM21.0554 9.91416C20.0908 9.87009 19.8015 9.86094 17.3594 9.86094C14.9173 9.86094 14.6279 9.87009 13.6634 9.91416C12.7712 9.9549 12.2873 10.1037 11.9646 10.2293C11.5381 10.3956 11.2329 10.5927 10.9128 10.9128C10.6094 11.208 10.3758 11.5674 10.2293 11.9646C10.1038 12.2872 9.95493 12.7712 9.91419 13.6634C9.87012 14.6279 9.86097 14.9172 9.86097 17.3593C9.86097 19.8014 9.87012 20.0908 9.91419 21.0553C9.95493 21.9475 10.1038 22.4314 10.2293 22.7541C10.3757 23.1507 10.6093 23.5107 10.9128 23.8059C11.208 24.1094 11.568 24.343 11.9646 24.4894C12.2873 24.6149 12.7712 24.7638 13.6634 24.8045C14.6279 24.8486 14.9164 24.8577 17.3594 24.8577C19.8023 24.8577 20.0908 24.8486 21.0554 24.8045C21.9475 24.7638 22.4315 24.6149 22.7541 24.4894C23.1807 24.3231 23.4858 24.126 23.8059 23.8059C24.1094 23.5107 24.3431 23.1507 24.4894 22.7541C24.615 22.4314 24.7638 21.9475 24.8046 21.0553C24.8486 20.0908 24.8578 19.8014 24.8578 17.3593C24.8578 14.9172 24.8486 14.6279 24.8046 13.6634C24.7638 12.7712 24.615 12.2872 24.4894 11.9646C24.3231 11.5381 24.1261 11.2329 23.8059 10.9128C23.5107 10.6093 23.1513 10.3758 22.7541 10.2293C22.4315 10.1037 21.9475 9.9549 21.0554 9.91416ZM16.1911 20.1789C16.8436 20.4505 17.5701 20.4872 18.2465 20.2826C18.923 20.0781 19.5074 19.645 19.9001 19.0574C20.2927 18.4699 20.4692 17.7642 20.3993 17.0609C20.3295 16.3577 20.0177 15.7005 19.5171 15.2016C19.198 14.8827 18.8122 14.6385 18.3874 14.4867C17.9626 14.3348 17.5094 14.279 17.0604 14.3232C16.6115 14.3675 16.1779 14.5108 15.791 14.7427C15.4041 14.9747 15.0734 15.2895 14.8227 15.6646C14.5721 16.0397 14.4077 16.4657 14.3415 16.912C14.2752 17.3582 14.3087 17.8136 14.4396 18.2453C14.5705 18.677 14.7954 19.0744 15.0983 19.4087C15.4012 19.7431 15.7744 20.0061 16.1911 20.1789ZM14.0351 14.035C14.4716 13.5985 14.9899 13.2522 15.5603 13.0159C16.1307 12.7797 16.742 12.6581 17.3594 12.6581C17.9768 12.6581 18.5881 12.7797 19.1585 13.0159C19.7289 13.2522 20.2471 13.5985 20.6837 14.035C21.1202 14.4716 21.4665 14.9899 21.7028 15.5602C21.939 16.1306 22.0607 16.742 22.0607 17.3593C22.0607 17.9767 21.939 18.5881 21.7028 19.1584C21.4665 19.7288 21.1202 20.2471 20.6837 20.6836C19.802 21.5653 18.6062 22.0606 17.3594 22.0606C16.1125 22.0606 14.9167 21.5653 14.0351 20.6836C13.1534 19.802 12.6581 18.6062 12.6581 17.3593C12.6581 16.1125 13.1534 14.9167 14.0351 14.035ZM23.1033 13.3582C23.2115 13.2561 23.2981 13.1334 23.358 12.9973C23.4179 12.8612 23.4499 12.7144 23.4521 12.5657C23.4542 12.417 23.4265 12.2694 23.3706 12.1316C23.3147 11.9938 23.2317 11.8686 23.1266 11.7634C23.0214 11.6583 22.8962 11.5753 22.7584 11.5194C22.6206 11.4635 22.473 11.4358 22.3243 11.4379C22.1756 11.4401 22.0288 11.4721 21.8927 11.532C21.7566 11.5919 21.6339 11.6785 21.5318 11.7867C21.3333 11.9971 21.2247 12.2765 21.2289 12.5657C21.2331 12.8549 21.3499 13.1311 21.5544 13.3356C21.7589 13.5401 22.0351 13.6569 22.3243 13.6611C22.6135 13.6653 22.8929 13.5567 23.1033 13.3582Z" fill="white"/>
</svg>
