<svg width="35" height="35" viewBox="0 0 35 35" fill="none" xmlns="http://www.w3.org/2000/svg">
<g clip-path="url(#clip0_396_66)">
<path d="M20.239 4.06684C18.3685 2.19936 15.9084 1.03822 13.2779 0.781231C10.6474 0.52424 8.0091 1.18729 5.81255 2.65744C3.616 4.12758 1.99704 6.31387 1.23145 8.84387C0.465868 11.3739 0.601021 14.0911 1.61389 16.5326C2.62676 18.9741 4.45468 20.9889 6.78628 22.2338C9.11787 23.4787 11.8089 23.8766 14.4009 23.3598C16.993 22.8429 19.3257 21.4434 21.0017 19.3994C22.6777 17.3555 23.5933 14.7937 23.5925 12.1504C23.5956 10.6482 23.3008 9.16027 22.7252 7.77275C22.1496 6.38523 21.3046 5.12563 20.239 4.06684Z" fill="white"/>
<path d="M12.1492 24.308C9.7484 24.3068 7.4018 23.5944 5.4056 22.2605C3.40939 20.9267 1.85306 19.0313 0.933101 16.8136C0.0131389 14.5958 -0.229218 12.1553 0.236626 9.79989C0.702469 7.44453 1.85563 5.28 3.55053 3.57955C4.96179 2.16367 6.70058 1.11793 8.61273 0.535053C10.5249 -0.0478207 12.5513 -0.149817 14.5123 0.238109C16.4733 0.626036 18.3083 1.4919 19.8546 2.75892C21.4008 4.02594 22.6106 5.65497 23.3766 7.50156C24.1426 9.34815 24.4412 11.3552 24.2459 13.3449C24.0505 15.3345 23.3673 17.2452 22.2568 18.9075C21.1463 20.5698 19.6428 21.9324 17.8796 22.8745C16.1165 23.8165 14.1481 24.3089 12.1492 24.308V23.5913V22.8747C14.2681 22.8733 16.3391 22.2436 18.1003 21.0653C19.8616 19.887 21.234 18.2129 22.044 16.2547C22.8541 14.2965 23.0655 12.142 22.6515 10.0637C22.2375 7.98533 21.2167 6.07638 19.7181 4.57814C18.2195 3.07989 16.3104 2.05961 14.2321 1.64627C12.1539 1.23292 9.99971 1.44506 8.04197 2.25587C6.08422 3.06669 4.41078 4.43978 3.23317 6.20158C2.05556 7.96338 1.42666 10.0348 1.42595 12.154C1.41738 13.5645 1.68892 14.9628 2.22483 16.2676C2.76073 17.5724 3.55033 18.7578 4.54783 19.755C5.54533 20.7523 6.73088 21.5416 8.03572 22.0771C9.34057 22.6126 10.7387 22.8837 12.1492 22.8747V24.308Z" fill="#282D33"/>
<path d="M18.573 18.5534C17.0989 20.0354 15.1566 20.9605 13.0771 21.171C10.9975 21.3815 8.90928 20.8645 7.16812 19.708C5.42695 18.5515 4.14055 16.827 3.52804 14.8284C2.91553 12.8297 3.01482 10.6806 3.80897 8.7469C4.60312 6.81325 6.04302 5.21477 7.8834 4.22373C9.72377 3.2327 11.8508 2.91043 13.9021 3.31181C15.9534 3.71319 17.8021 4.8134 19.1333 6.42502C20.4645 8.03664 21.1959 10.06 21.2028 12.1504C21.2089 13.3385 20.9796 14.516 20.5283 15.615C20.0769 16.714 19.4124 17.7127 18.573 18.5534Z" fill="#AEB5B6"/>
<path d="M6.09427 12.154H4.66116C4.664 10.1674 5.45409 8.26302 6.85831 6.85799C8.26253 5.45295 10.1664 4.66187 12.1527 4.65808V6.09133C10.5459 6.09323 9.00545 6.7327 7.86958 7.86936C6.7337 9.00602 6.09522 10.547 6.09427 12.154Z" fill="white"/>
<path d="M24.646 20.3619L20.3671 24.6412L29.7001 33.9752L33.979 29.6959L24.646 20.3619Z" fill="#83B1B2"/>
<path d="M26.5947 24.0529L25.5813 25.0663L30.752 30.2375L31.7653 29.2241L26.5947 24.0529Z" fill="white"/>
<path d="M24.1567 20.847L20.8537 24.1515L22.4729 25.7702L25.7758 22.4657L24.1567 20.847Z" fill="white"/>
<path d="M22.4711 26.7946L19.8413 24.161L24.1406 19.8613L26.774 22.4913L22.4711 26.7946ZM21.8656 24.161L22.4711 24.7666L24.7605 22.477L24.155 21.8714L21.8656 24.161Z" fill="#282D33"/>
<path d="M34.2835 30.9797C34.2825 31.8563 33.9337 32.6965 33.3136 33.316C32.6936 33.9354 31.853 34.2834 30.9766 34.2834L30.1848 33.4879C31.2883 32.3891 32.3894 31.2879 33.4881 30.1843L34.2835 30.9797Z" fill="white"/>
<path d="M30.6828 35L29.1744 33.4879L33.4738 29.1882L34.9857 30.6967V30.9941C34.9828 32.0594 34.5584 33.0804 33.8052 33.8337C33.0519 34.587 32.0311 35.0115 30.9658 35.0143L30.6828 35ZM31.1987 33.4879L31.2596 33.5488C31.845 33.4853 32.3911 33.2237 32.8075 32.8073C33.2238 32.3908 33.4855 31.8447 33.549 31.2592L33.4881 31.1983L31.1987 33.4879Z" fill="#282D33"/>
<path d="M20.8443 21.5406L19.8312 22.5543L21.2146 23.9374L22.2278 22.9238L20.8443 21.5406Z" fill="#282D33"/>
<path d="M21.6624 18.9407L20.6488 19.9539L22.4397 21.7456L23.4532 20.7323L21.6624 18.9407Z" fill="#282D33"/>
</g>
<defs>
<clipPath id="clip0_396_66">
<rect width="35" height="35" fill="white"/>
</clipPath>
</defs>
</svg>
