<svg width="34" height="34" viewBox="0 0 34 34" fill="none" xmlns="http://www.w3.org/2000/svg">
<g clip-path="url(#clip0_396_92)">
<path d="M17 30.5959C24.5257 30.5959 30.6264 24.4977 30.6264 16.9751C30.6264 9.45262 24.5257 3.3544 17 3.3544C9.47433 3.3544 3.37357 9.45262 3.37357 16.9751C3.37357 24.4977 9.47433 30.5959 17 30.5959Z" fill="#9BA577"/>
<path d="M0 18.0691V15.941C0.0496765 15.5367 0.0887083 15.1305 0.149917 14.728C0.770873 10.4984 2.66213 6.94267 5.90973 4.16638C10.016 0.655898 14.7921 -0.666186 20.103 0.306535C29.6835 2.06222 35.7724 11.4791 33.5423 20.9482C32.0041 27.4735 26.5184 32.6324 19.9318 33.7435C19.3109 33.8481 18.6899 33.9208 18.0689 34.0024H15.94C15.7235 33.9749 15.5062 33.9447 15.2888 33.9208C11.9286 33.5519 8.91516 32.3318 6.30182 30.1851C3.04446 27.5099 1.01216 24.0943 0.260802 19.9365C0.149917 19.3167 0.0887081 18.6907 0 18.0691ZM32.013 17.0051C32.0076 8.73294 25.2596 1.9966 16.9894 2.00902C8.71911 2.02143 2.00303 8.73825 1.99238 16.9944C1.98174 25.2506 8.7271 32.0055 16.9991 32.0082C25.2712 32.0108 32.0183 25.2683 32.013 17.0015V17.0051Z" fill="black"/>
<path d="M18.1798 21.1524C18.7841 20.5657 19.5549 20.1798 20.3869 20.0476C21.2254 19.9192 22.083 20.0619 22.8347 20.4549C23.5864 20.848 24.1928 21.4708 24.5654 22.2326C24.9381 22.9944 25.0575 23.8552 24.9063 24.6896C24.7551 25.524 24.3411 26.2882 23.7248 26.8709C23.1085 27.4536 22.3221 27.8242 21.4802 27.9287C20.6384 28.0332 19.7852 27.8661 19.045 27.4518C18.3048 27.0375 17.7164 26.3977 17.3656 25.6256C17.0148 24.8536 16.92 23.9897 17.0949 23.1599C17.141 22.9374 17.0825 22.8487 16.9068 22.7476C15.3006 21.8172 13.6968 20.8817 12.0953 19.9412C11.9277 19.8428 11.8221 19.8463 11.6669 19.9829C11.012 20.5728 10.1783 20.9262 9.29886 20.9868C8.41942 21.0474 7.54505 20.8117 6.81543 20.3172C6.08806 19.8296 5.54172 19.1161 5.26094 18.2869C4.98017 17.4577 4.98062 16.5591 5.26222 15.7302C5.54382 14.9013 6.09087 14.1883 6.81872 13.7015C7.54657 13.2147 8.41464 12.9812 9.2886 13.0373C10.1594 13.082 10.9878 13.4267 11.6332 14.0127C11.799 14.1607 11.9126 14.1953 12.114 14.0756C13.7107 13.1298 15.3139 12.1931 16.9237 11.2656C17.0905 11.169 17.1375 11.0838 17.1011 10.8772C16.796 9.25279 17.2785 7.8846 18.5923 6.88705C19.9061 5.8895 21.3715 5.76004 22.8343 6.53237C24.2971 7.30469 25.0458 8.59663 24.958 10.2565C24.8693 11.873 24.0336 13.0594 22.5407 13.697C21.0477 14.3345 19.6382 14.0747 18.3883 13.0417C18.2109 12.8963 18.1044 12.8723 17.9075 12.9885C16.3107 13.9343 14.7069 14.8701 13.096 15.7958C12.9185 15.8969 12.9097 15.99 12.9185 16.1851C12.9496 16.7535 12.9185 17.3254 12.9185 17.8956C12.9185 17.994 12.9585 18.1412 13.0285 18.1828C14.7146 19.1754 16.4048 20.1605 18.0991 21.1382C18.1252 21.1469 18.1524 21.1517 18.1798 21.1524ZM21.0007 8.0513C20.6061 8.04796 20.2195 8.16187 19.8898 8.37857C19.56 8.59526 19.3022 8.90498 19.1488 9.26842C18.9955 9.63186 18.9537 10.0326 19.0286 10.4199C19.1035 10.8071 19.2919 11.1634 19.5697 11.4435C19.8475 11.7236 20.2023 11.9149 20.5891 11.9931C20.9759 12.0712 21.3772 12.0328 21.742 11.8827C22.1069 11.7325 22.4189 11.4774 22.6385 11.1496C22.8581 10.8219 22.9753 10.4364 22.9754 10.042C22.9759 9.51636 22.7686 9.01183 22.3988 8.63818C22.029 8.26453 21.5265 8.05201 21.0007 8.04687V8.0513ZM11.0237 16.9947C11.0213 16.6006 10.9018 16.2162 10.6806 15.89C10.4594 15.5639 10.1463 15.3107 9.78099 15.1625C9.41569 15.0144 9.01463 14.978 8.6286 15.0578C8.24257 15.1377 7.88894 15.3303 7.6125 15.6112C7.33606 15.8922 7.14925 16.2488 7.07572 16.6359C7.0022 17.023 7.04528 17.4233 7.1995 17.7859C7.35372 18.1486 7.61214 18.4573 7.94203 18.673C8.27192 18.8888 8.65845 19.0018 9.05264 18.9977C9.57899 18.991 10.0814 18.7767 10.4505 18.4016C10.8196 18.0265 11.0256 17.5208 11.0237 16.9947ZM20.9839 25.9673C21.3781 25.9681 21.7637 25.8521 22.0919 25.6337C22.42 25.4153 22.676 25.1045 22.8273 24.7407C22.9786 24.3768 23.0184 23.9762 22.9418 23.5897C22.8652 23.2031 22.6755 22.848 22.3968 22.5693C22.1181 22.2906 21.7629 22.1009 21.3763 22.0241C20.9896 21.9473 20.5889 21.987 20.2248 22.1381C19.8607 22.2892 19.5496 22.5449 19.331 22.8728C19.1124 23.2007 18.9961 23.5861 18.9968 23.9802C18.9996 24.5062 19.2098 25.0098 19.5818 25.3819C19.9539 25.7539 20.4576 25.9642 20.9839 25.9673Z" fill="black"/>
</g>
<defs>
<clipPath id="clip0_396_92">
<rect width="34" height="34" fill="white"/>
</clipPath>
</defs>
</svg>
